<svg id="Laag_1" data-name="Laag 1" xmlns="http://www.w3.org/2000/svg" xmlns:xlink="http://www.w3.org/1999/xlink" viewBox="0 0 99.21 99.21"><defs><style>.cls-1{fill:#fcf0d2;}.cls-2{clip-path:url(#clip-path);}.cls-3{fill:#2f2614;}</style><clipPath id="clip-path" transform="translate(0 0)"><rect class="cls-1" width="99.21" height="99.21"/></clipPath></defs><rect class="cls-1" width="99.21" height="99.21"/><g class="cls-2"><path class="cls-3" d="M74,75.72l-1.44-.58.42,1.5Zm-26.34,9A1.45,1.45,0,0,0,49,86.21a1.43,1.43,0,0,0,1.39-1.49,1.36,1.36,0,1,0-2.72,0M36.94,82.11l-.67.59L37,83ZM24.21,73.88a1.37,1.37,0,1,0,2,1.89,1.37,1.37,0,1,0-2-1.89m-2.56-5.34-.86.6.65.92c.12.17.4.18.66,0s.31-.43.19-.6ZM18,64.29l-.89,0,.33.72ZM81.48,37l1.55.12-.51-1.28Zm.92,7.26L86,43.49l-.16-.78a1.72,1.72,0,0,0-2.1-1.41,1.78,1.78,0,0,0-1.47,2.12Zm.44,5.67,1.64,0,0-1.49a.71.71,0,0,0-.82-.69.74.74,0,0,0-.81.72Zm2.41-1.11,0,1.06,1.89,0a.08.08,0,0,1,.09.09l0,.7a.09.09,0,0,1-.09.09l-5,.1c-.05,0-.09,0-.09-.09l0-2.36a1.55,1.55,0,0,1,1.58-1.56,1.72,1.72,0,0,1,1.57,1l2-1a.08.08,0,0,1,.09.09l0,.79a.19.19,0,0,1-.07.16Zm1.64-4.65a.08.08,0,0,1-.07.1l-4.94,1a.1.1,0,0,1-.11-.07l-.34-1.72a2.5,2.5,0,0,1,2.09-3,2.47,2.47,0,0,1,3,2ZM85.49,38a.09.09,0,0,1,0,.12l-5.69-.42,0-.05a.17.17,0,0,1,0-.07l3.83-4.22a.09.09,0,0,1,.12.05l.29.73c0,.05,0,.07,0,.13-.28.29-.55.6-.81.88l.79,2c.38,0,.79,0,1.19.08.07,0,.1,0,.12.05Zm-3-6.84a.08.08,0,0,1,0,.12l-4.3,2.79s0,0-.06,0,0,0,0-.07l.82-3.27c0-.05,0-.07,0-.1s0,0-.09,0L75.51,30s-.05,0-.07,0,0,0,0-.07l4.3-2.79a.1.1,0,0,1,.13,0l.38.59a.09.09,0,0,1,0,.13L77.8,29.41l2.1.45c.06,0,.09,0,.11.05S80,30,80,30l-.44,2.1L82,30.55a.09.09,0,0,1,.13,0Zm-7.3-6.94a.38.38,0,0,1-.54,0A35.66,35.66,0,0,0,15,58a.39.39,0,0,1-.29.47h-.09a.4.4,0,0,1-.38-.3,36.48,36.48,0,0,1,35.42-45,36.21,36.21,0,0,1,25.58,10.5.39.39,0,0,1,0,.55M14.51,63l5.44.09a.38.38,0,0,1,.23.18.37.37,0,0,1,0,.31l-3.44,4.21a.19.19,0,0,1-.27-.09L16,66.8a.29.29,0,0,1,.05-.27l.56-.66-.73-1.59H15a.27.27,0,0,1-.23-.13l-.41-.89a.2.2,0,0,1,.11-.27m3.35,6.65,3.95-2.78a.18.18,0,0,1,.27,0l1.31,1.87a1.62,1.62,0,0,1-.47,2.31,1.64,1.64,0,0,1-1.7.2L20.28,73A.22.22,0,0,1,20,73l-.5-.71a.3.3,0,0,1,0-.36l.79-1.4-.46-.64-1.19.84a.19.19,0,0,1-.27,0l-.52-.73a.18.18,0,0,1,.05-.27M23.31,73a2.65,2.65,0,1,1,0,3.76,2.66,2.66,0,0,1,0-3.76m4.08,6.86L30,75.73c.1,0,.15-.06.23,0a.19.19,0,0,1,.08.18l.64,2.83a.25.25,0,0,0,0,.12.2.2,0,0,0,.13,0L34,78.22a.19.19,0,0,1,.19,0c.08,0,.09.1.09.21l-2.61,4.09a.26.26,0,0,1-.38.08l-.62-.39a.26.26,0,0,1-.08-.38L31.72,80l-1.51.36c-.08,0-.11,0-.16,0a.18.18,0,0,1-.07-.15l-.32-1.52-1.19,1.86a.27.27,0,0,1-.38.09l-.62-.4a.27.27,0,0,1-.08-.38m6.15,3.75,4-3.7a.32.32,0,0,1,.49.19l.44,5.43a.2.2,0,0,1-.26.12l-.92-.35a.25.25,0,0,1-.14-.23l-.06-.87-1.63-.63-.63.6a.27.27,0,0,1-.26.07l-.92-.36a.2.2,0,0,1-.1-.27m4.3-34.2c0,1,.38,1.68,1.83,1.66-2,.92-3.2-.52-3.09-1.76a2.9,2.9,0,0,1,3.13-2.64,3.8,3.8,0,0,1,4,3.83c0,2.84-2.78,4.15-4.82,4.15s-4-1-4.64-2.83a19.31,19.31,0,0,0-.75,4.89c.11,2.72,2.09,2.53,2.71,2.46A1.59,1.59,0,0,0,37,56.46a2.13,2.13,0,0,1-.46,4A3.12,3.12,0,0,1,33.69,60a23.33,23.33,0,0,0,.86,4.78,15.1,15.1,0,0,1-2.42-8.67c0-16.07,14.53-23.22,17.45-33.39,1.49,4.17,4.63,8.35,8.25,12.53l.07.08c4,4.76,3.8,11.35-2.17,15.24s-13.1,4.57-13.1,11.82c0,4.31,2.9,6.85,6.95,6.85s7-2.52,7-6.17-3.88-4.89-5.7-4.89-4.38,1.3-4.38,4,1.61,2.85,3.1,2.85,2.93-.72,2.93-2.13a2.34,2.34,0,0,0-2.11-2.14c1.27-.18,3.1.66,3.1,2.14a3.66,3.66,0,0,1-3.92,3.39c-2.58,0-4.66-1.11-4.66-4.13a6,6,0,0,1,5.94-5.77C54,56.41,59,58.25,59,63a9.23,9.23,0,0,1-1.37,5.13,16,16,0,0,0,7.59-10.75s0,0,0-.06c.54-3.73-1.45-6.15-3.84-6.15a3.22,3.22,0,0,0-3.5,3.11,2.33,2.33,0,0,0,2.55,2.5c1.75,0,2.42-1.18,2.33-1.95a1.34,1.34,0,0,0-2.44-.55c.38-1.74,3.28-1.62,3.46.51A3.12,3.12,0,0,1,60.4,58C58.21,58,56,56.87,56,54.26a5,5,0,0,1,5.23-4.81A5.63,5.63,0,0,1,65.3,51a23.8,23.8,0,0,0-.69-3.44v0c-.57-1.75-3-1.46-3.06,0A1.71,1.71,0,0,1,64,45.54c-.59-1.67-1.32-3.28-2.08-4.95A26.93,26.93,0,0,1,67,56.14a14.88,14.88,0,0,1-4.51,11.21,18.62,18.62,0,0,1-12.94,4.86l-.55,0c-5.73-.29-10.15-5.09-10.15-9.42,0-13.59,18.48-10.82,18.48-20.58,0-4.58-3.76-6-7.67-12.34a37.34,37.34,0,0,1-4.53,5.81l-.12.12c-3.78,4.41-1.38,10.47,2.9,10.47,2.57,0,5.21-1.37,5.21-4.1a3.33,3.33,0,0,0-3.45-3.6,2.28,2.28,0,0,0-2.42,2.22c0,1.57,2.3,2.69,3.33,1-.6,3-5,2-5-.8a3.79,3.79,0,0,1,4.09-4c1.9,0,5.36,1,5.36,5,0,4.51-4.08,6.36-7,6.36a7,7,0,0,1-7.33-7.74,40.91,40.91,0,0,0-4.89,7.13,3.41,3.41,0,0,0,3.07,5c1.55,0,3.13-.7,3.13-2.58a2.2,2.2,0,0,0-2.3-2.2,1.72,1.72,0,0,0-1.87,1.4M40.53,86l.95-4.73a.19.19,0,0,1,.22-.16l.89.18a.19.19,0,0,1,.15.23L42,85.28l2.19.45a.18.18,0,0,1,.15.22l-.16.8a.18.18,0,0,1-.22.16l-3.27-.66a.18.18,0,0,1-.15-.23m5.84-1.4A2.65,2.65,0,1,1,49,87.33a2.65,2.65,0,0,1-2.6-2.71m9.16-3.16a2.77,2.77,0,0,1,2,.41.28.28,0,0,1,.07.13.18.18,0,0,1,0,.15l-.46.59a.16.16,0,0,1-.12.07.24.24,0,0,1-.18,0,1.63,1.63,0,0,0-1.12-.13,1.42,1.42,0,0,0-1.09,1.7,1.48,1.48,0,0,0,1.63,1.24,1.61,1.61,0,0,0,.81-.29L57,84.65l-.78.14a.19.19,0,0,1-.22-.15l-.13-.7a.18.18,0,0,1,.15-.23l1.89-.34a.19.19,0,0,1,.23.16l.46,2.55a.19.19,0,0,1-.15.23l-.29,0c-.16,0-.19,0-.25,0l-.16-.22a2.17,2.17,0,0,1-1.28.63,2.64,2.64,0,0,1-3.06-2.16,2.66,2.66,0,0,1,2.15-3.1m3.91-.72a.18.18,0,0,1,.13-.24l.85-.29a.18.18,0,0,1,.24.12l1.56,4.58a.21.21,0,0,1-.12.25l-.85.29a.19.19,0,0,1-.25-.13Zm5.07-2.38a2.82,2.82,0,0,1,2.09-.2s.08.07.1.11a.21.21,0,0,1,0,.15l-.28.7a.21.21,0,0,1-.09.1.27.27,0,0,1-.18,0,1.72,1.72,0,0,0-1.12.2,1.42,1.42,0,0,0-.56,1.94,1.49,1.49,0,0,0,1.92.73,1.54,1.54,0,0,0,.89-.87.23.23,0,0,1,.11-.14.18.18,0,0,1,.14,0l.61.24a.2.2,0,0,1,.12.09.29.29,0,0,1,0,.16,2.37,2.37,0,0,1-1.43,1.56,2.62,2.62,0,0,1-3.54-1.2,2.66,2.66,0,0,1,1.18-3.58m6.73-4.58a.07.07,0,0,1,0-.06s0,0,.06,0l5.29,2.15a.09.09,0,0,1,0,.13L76,76.5s-.07,0-.14,0L74.79,76,73.2,77.47c.12.36.22.76.34,1.14,0,.07,0,.1,0,.14l-.59.53a.09.09,0,0,1-.13,0Zm7,.34-4.11-3.06a.06.06,0,0,1,0-.07s0,0,.06,0l3.35-.37c.06,0,.08,0,.1,0s0,0,0-.1L77,67.15s0-.05,0-.08,0,0,.07,0l4.1,3.07a.08.08,0,0,1,0,.12l-.42.56a.08.08,0,0,1-.13,0L78.34,69.1l.3,2.13a.13.13,0,0,1,0,.11.14.14,0,0,1-.11,0l-2.13.32,2.31,1.72a.09.09,0,0,1,0,.13l-.42.56a.07.07,0,0,1-.12,0m3.63-7,0,0a3.16,3.16,0,0,0,.9-1.14c.21-.43.16-1-.17-1.13-.9-.45-1.78,2.26-3.45,1.43-.81-.4-1-1.21-.5-2.27a4.38,4.38,0,0,1,1-1.19.09.09,0,0,1,.1,0l0,0,.36.45a.08.08,0,0,1,0,.08s0,0,0,0a4.45,4.45,0,0,0-.73.94c-.42.85.09,1.12.21,1.18,1,.47,1.88-2.21,3.47-1.43.74.37.76,1.49.43,2.15a3.24,3.24,0,0,1-1.18,1.46.12.12,0,0,1-.1,0l0,0-.32-.42a.14.14,0,0,1,0-.09m3.49-5.84L81.17,60l-.39,1.27a.09.09,0,0,1-.12.06l-.58-.18A.08.08,0,0,1,80,61l1-3.39a.1.1,0,0,1,.12-.06l.58.18a.1.1,0,0,1,.06.12l-.4,1.27,4.15,1.29a.09.09,0,0,1,.06.11l-.21.67a.09.09,0,0,1-.12.06m1.19-4.47-5-.74a.09.09,0,0,1-.08-.1l.5-3.36a.1.1,0,0,1,.1-.08l.6.09a.09.09,0,0,1,.08.11l-.38,2.57,1.5.22.3-2c0-.06,0-.09.1-.08l.58.08a.1.1,0,0,1,.08.11l-.3,2,1.34.2.38-2.57a.1.1,0,0,1,.11-.08l.6.09a.09.09,0,0,1,.07.11l-.49,3.35a.09.09,0,0,1-.11.08m5.63-7.17A42.52,42.52,0,1,0,49.61,92.13,42.52,42.52,0,0,0,92.13,49.61" transform="translate(0 0)"/></g></svg>