<svg width="32" height="32" viewBox="0 0 32 32" fill="none" xmlns="http://www.w3.org/2000/svg">
<circle cx="16" cy="16" r="16" fill="white"/>
<path d="M15.0625 25.3877C13.0312 22.8486 8.5 16.7939 8.5 13.3564C8.5 9.21582 11.8203 5.85645 16 5.85645C20.1406 5.85645 23.5 9.21582 23.5 13.3564C23.5 16.7939 18.9297 22.8486 16.8984 25.3877C16.4297 25.9736 15.5312 25.9736 15.0625 25.3877ZM16 15.8564C17.3672 15.8564 18.5 14.7627 18.5 13.3564C18.5 11.9893 17.3672 10.8564 16 10.8564C14.5938 10.8564 13.5 11.9893 13.5 13.3564C13.5 14.7627 14.5938 15.8564 16 15.8564Z" fill="black"/>
</svg>
