<svg width="70" height="71" viewBox="0 0 70 71" fill="none" xmlns="http://www.w3.org/2000/svg">
<path d="M55.0922 56.995L53.9081 56.5176L54.2535 57.7523L55.0922 56.995ZM33.4336 64.4033C33.4242 64.7104 33.5336 65.0093 33.7388 65.2377C33.944 65.4662 34.2294 65.6066 34.5354 65.6297C34.6913 65.6255 34.8448 65.5903 34.9869 65.5261C35.129 65.462 35.257 65.3702 35.3634 65.256C35.4698 65.1419 35.5524 65.0077 35.6065 64.8613C35.6605 64.7149 35.685 64.5592 35.6784 64.4033C35.6784 64.1064 35.5606 63.8216 35.3508 63.6117C35.1411 63.4017 34.8567 63.2838 34.5601 63.2838C34.2635 63.2838 33.9791 63.4017 33.7693 63.6117C33.5596 63.8216 33.4418 64.1064 33.4418 64.4033M24.6188 62.2549L24.0679 62.7405L24.6682 62.9875L24.6188 62.2549ZM14.1513 55.4804C14.0493 55.5885 13.9695 55.7157 13.9165 55.8546C13.8636 55.9936 13.8385 56.1416 13.8427 56.2903C13.8469 56.439 13.8803 56.5853 13.941 56.7211C14.0017 56.8568 14.0886 56.9793 14.1965 57.0814C14.3045 57.1836 14.4315 57.2634 14.5704 57.3164C14.7092 57.3694 14.857 57.3946 15.0056 57.3904C15.1541 57.3862 15.3003 57.3527 15.4359 57.2919C15.5715 57.2312 15.6938 57.1442 15.7959 57.0361C15.8979 56.928 15.9777 56.8009 16.0306 56.6619C16.0836 56.523 16.1087 56.3749 16.1045 56.2263C16.1003 56.0776 16.0669 55.9312 16.0061 55.7955C15.9454 55.6597 15.8586 55.5373 15.7506 55.4351C15.6426 55.333 15.5156 55.2531 15.3768 55.2001C15.238 55.1471 15.0901 55.122 14.9416 55.1262C14.7931 55.1304 14.6469 55.1638 14.5113 55.2246C14.3757 55.2854 14.2534 55.3723 14.1513 55.4804ZM12.0463 51.0848L11.3391 51.5787L11.8736 52.336C11.9723 52.4759 12.2025 52.4842 12.4163 52.336C12.6301 52.1878 12.6712 51.9821 12.5726 51.8421L12.0463 51.0848ZM9.045 47.5865H8.31318L8.58453 48.1791L9.045 47.5865ZM61.2428 25.1229L62.5173 25.2217L62.098 24.1681L61.2428 25.1229ZM61.9993 31.0989L64.9595 30.4651L64.8279 29.8231C64.7981 29.6297 64.7285 29.4447 64.6236 29.2796C64.5188 29.1145 64.3808 28.973 64.2186 28.864C64.0564 28.7549 63.8733 28.6807 63.681 28.646C63.4886 28.6113 63.2912 28.6169 63.1011 28.6625C62.9051 28.6929 62.7173 28.763 62.5491 28.8683C62.3809 28.9737 62.2359 29.1122 62.1228 29.2754C62.0098 29.4386 61.9311 29.6232 61.8914 29.8178C61.8518 30.0124 61.8522 30.213 61.8924 30.4075L61.9993 31.0989ZM62.3611 35.7662H63.7096V34.5397C63.7083 34.4561 63.689 34.3737 63.6532 34.2982C63.6173 34.2227 63.5657 34.1557 63.5018 34.1019C63.4379 34.0481 63.3632 34.0086 63.2827 33.9861C63.2022 33.9637 63.1179 33.9588 63.0354 33.9717C62.9521 33.9638 62.8681 33.9731 62.7887 33.9991C62.7092 34.0251 62.6359 34.0672 62.5734 34.1228C62.5109 34.1784 62.4605 34.2464 62.4254 34.3223C62.3903 34.3983 62.3712 34.4807 62.3693 34.5644L62.3611 35.7662ZM64.3428 34.8525V35.725H65.8969C65.9069 35.7237 65.9171 35.7246 65.9267 35.7279C65.9363 35.7311 65.945 35.7365 65.9522 35.7437C65.9594 35.7509 65.9648 35.7596 65.968 35.7692C65.9713 35.7788 65.9722 35.789 65.9709 35.7991V36.3753C65.9709 36.3949 65.9631 36.4138 65.9492 36.4277C65.9353 36.4416 65.9165 36.4494 65.8969 36.4494L61.7855 36.5317C61.7444 36.5317 61.7115 36.5317 61.7115 36.4576V34.515C61.7104 34.3447 61.7433 34.1758 61.8084 34.0184C61.8735 33.861 61.9694 33.7183 62.0905 33.5986C62.2116 33.4789 62.3554 33.3847 62.5135 33.3216C62.6715 33.2584 62.8406 33.2276 63.0107 33.2309C63.2821 33.2296 63.5481 33.3066 63.777 33.4525C64.0059 33.5985 64.1881 33.8073 64.3017 34.054L65.9462 33.2309C65.9562 33.2295 65.9665 33.2305 65.9761 33.2338C65.9857 33.237 65.9944 33.2424 66.0015 33.2496C66.0087 33.2568 66.0141 33.2655 66.0173 33.2751C66.0206 33.2847 66.0216 33.2949 66.0202 33.305V33.9553C66.0218 33.9802 66.0175 34.0052 66.0074 34.0281C65.9974 34.051 65.9821 34.0712 65.9627 34.087L64.3428 34.8525ZM65.6913 31.0249C65.6937 31.0341 65.6941 31.0438 65.6924 31.0532C65.6908 31.0626 65.687 31.0715 65.6816 31.0794C65.6761 31.0872 65.669 31.0938 65.6607 31.0986C65.6525 31.1034 65.6433 31.1063 65.6337 31.1072L61.5717 31.9303C61.5522 31.9331 61.5324 31.9289 61.5158 31.9183C61.4992 31.9077 61.487 31.8916 61.4813 31.8727L61.2017 30.4569C61.1425 30.1809 61.1406 29.8957 61.1962 29.6189C61.2517 29.3422 61.3636 29.0799 61.5248 28.8482C61.686 28.6166 61.893 28.4207 62.1331 28.2726C62.3732 28.1245 62.6411 28.0275 62.9202 27.9875C63.1908 27.924 63.4715 27.9168 63.745 27.9663C64.0185 28.0159 64.2789 28.121 64.5101 28.2753C64.7414 28.4297 64.9385 28.6298 65.0893 28.8635C65.2402 29.0972 65.3415 29.3593 65.3871 29.6338L65.6913 31.0249ZM64.5401 25.9461C64.5523 25.9597 64.559 25.9772 64.559 25.9955C64.559 26.0137 64.5523 26.0313 64.5401 26.0449L59.8614 25.6991V25.658C59.8574 25.639 59.8574 25.6194 59.8614 25.6004L63.0107 22.1267C63.0198 22.1227 63.0297 22.1206 63.0397 22.1205C63.0497 22.1204 63.0596 22.1224 63.0688 22.1262C63.078 22.13 63.0864 22.1357 63.0933 22.1429C63.1003 22.15 63.1058 22.1585 63.1094 22.1679L63.3478 22.7688C63.3478 22.8099 63.3478 22.8264 63.3478 22.8758C63.1176 23.1145 62.8956 23.3697 62.6818 23.6001L63.3314 25.2464C63.6438 25.2464 63.981 25.2464 64.3099 25.3123C64.3674 25.3123 64.3921 25.3123 64.4086 25.3534L64.5401 25.9461ZM62.0733 20.3158C62.0803 20.322 62.0859 20.3296 62.0898 20.3381C62.0936 20.3466 62.0956 20.3558 62.0956 20.3652C62.0956 20.3745 62.0936 20.3838 62.0898 20.3923C62.0859 20.4008 62.0803 20.4084 62.0733 20.4146L58.5375 22.7111C58.5375 22.7111 58.5375 22.7111 58.4882 22.7111C58.4389 22.7111 58.4882 22.7111 58.4882 22.6535L59.1625 19.9618C59.1625 19.9207 59.1625 19.9042 59.1625 19.8795C59.1625 19.8548 59.1625 19.8795 59.0885 19.8795L56.3339 19.3609C56.3339 19.3609 56.2927 19.3609 56.2763 19.3609C56.2598 19.3609 56.2763 19.3609 56.2763 19.3033L59.8121 17.0068C59.827 16.994 59.8459 16.987 59.8655 16.987C59.8851 16.987 59.9041 16.994 59.919 17.0068L60.2314 17.4924C60.2386 17.4993 60.2444 17.5076 60.2483 17.5168C60.2522 17.526 60.2542 17.5359 60.2542 17.5459C60.2542 17.5559 60.2522 17.5658 60.2483 17.575C60.2444 17.5842 60.2386 17.5925 60.2314 17.5994L58.2169 18.8753L59.9436 19.2457C59.993 19.2457 60.0176 19.2457 60.0341 19.2869C60.0505 19.328 60.0258 19.3609 60.0258 19.3609L59.664 21.0895L61.6704 19.8137C61.6773 19.8065 61.6856 19.8007 61.6948 19.7968C61.704 19.7929 61.7139 19.7908 61.7238 19.7908C61.7338 19.7908 61.7437 19.7929 61.7529 19.7968C61.7621 19.8007 61.7704 19.8065 61.7773 19.8137L62.0733 20.3158ZM56.0707 14.6032C56.0417 14.6326 56.0071 14.6559 55.969 14.6718C55.9309 14.6877 55.89 14.6959 55.8487 14.6959C55.8074 14.6959 55.7665 14.6877 55.7284 14.6718C55.6903 14.6559 55.6558 14.6326 55.6267 14.6032C51.0832 10.1401 45.2122 7.27826 38.9006 6.45007C32.589 5.62188 26.1796 6.87228 20.6405 10.0124C15.1014 13.1525 10.7336 18.0118 8.19667 23.8562C5.65979 29.7006 5.09169 36.2128 6.57819 42.4089C6.58797 42.45 6.58955 42.4926 6.58285 42.5343C6.57615 42.576 6.5613 42.616 6.53915 42.6519C6.517 42.6878 6.48798 42.719 6.45376 42.7437C6.41954 42.7684 6.38079 42.7861 6.33973 42.7958H6.26573C6.19384 42.7945 6.12437 42.7696 6.06793 42.725C6.0115 42.6804 5.97122 42.6185 5.95326 42.5489C4.89491 38.138 4.84861 33.5444 5.81783 29.1131C6.78706 24.6817 8.74663 20.5278 11.5494 16.9632C14.3521 13.3986 17.9252 10.5161 22.0003 8.53197C26.0754 6.54788 30.5466 5.51383 35.0781 5.50747C42.9554 5.48968 50.5188 8.59754 56.1118 14.1505C56.1716 14.2106 56.2051 14.292 56.2051 14.3768C56.2051 14.4617 56.1716 14.543 56.1118 14.6032M6.17528 46.5246L10.6484 46.5987C10.6882 46.6097 10.7253 46.6285 10.7578 46.6539C10.7902 46.6793 10.8174 46.7109 10.8376 46.7469C10.856 46.7869 10.8655 46.8304 10.8655 46.8745C10.8655 46.9185 10.856 46.9621 10.8376 47.0021L8.00894 50.4675C7.98979 50.4786 7.96851 50.4855 7.9465 50.4877C7.92449 50.49 7.90226 50.4875 7.88127 50.4805C7.86028 50.4735 7.84102 50.4621 7.82475 50.4471C7.80849 50.4321 7.7956 50.4138 7.78693 50.3934L7.40046 49.6526C7.38844 49.615 7.3859 49.575 7.39308 49.5363C7.40025 49.4975 7.41691 49.4611 7.44157 49.4303L7.90205 48.887L7.30179 47.5783H6.57819C6.54015 47.5781 6.50278 47.5682 6.46966 47.5495C6.43654 47.5307 6.40879 47.5038 6.38907 47.4712L6.05194 46.7386C6.04258 46.7182 6.0375 46.6961 6.03702 46.6736C6.03653 46.6511 6.04066 46.6288 6.04913 46.6079C6.05761 46.5871 6.07025 46.5682 6.08629 46.5525C6.10233 46.5368 6.12142 46.5245 6.14239 46.5164M8.897 51.9903L12.145 49.702C12.1589 49.6862 12.1759 49.6736 12.1951 49.6649C12.2142 49.6563 12.235 49.6518 12.256 49.6518C12.277 49.6518 12.2977 49.6563 12.3169 49.6649C12.336 49.6736 12.3531 49.6862 12.367 49.702L13.4442 51.2412C13.5487 51.3898 13.6219 51.5581 13.6592 51.7359C13.6964 51.9138 13.6969 52.0974 13.6608 52.2754C13.6246 52.4535 13.5524 52.6223 13.4487 52.7714C13.345 52.9205 13.2119 53.0469 13.0577 53.1427C12.8624 53.2963 12.6286 53.393 12.3819 53.4221C12.1353 53.4511 11.8854 53.4114 11.6598 53.3073L10.9198 54.756C10.8874 54.7828 10.8467 54.7974 10.8047 54.7974C10.7627 54.7974 10.722 54.7828 10.6895 54.756L10.2784 54.1716C10.2464 54.1289 10.2291 54.0769 10.2291 54.0234C10.2291 53.97 10.2464 53.918 10.2784 53.8753L10.928 52.7229L10.5498 52.1961L9.57126 52.8875C9.55673 52.9022 9.53944 52.9139 9.52039 52.9218C9.50133 52.9298 9.4809 52.9339 9.46025 52.9339C9.43961 52.9339 9.41917 52.9298 9.40012 52.9218C9.38106 52.9139 9.36377 52.9022 9.34925 52.8875L8.92166 52.2866C8.90808 52.27 8.89828 52.2505 8.89295 52.2297C8.88762 52.2089 8.88689 52.1871 8.8908 52.166C8.89471 52.1448 8.90318 52.1248 8.91561 52.1072C8.92804 52.0897 8.94413 52.0751 8.96278 52.0644M13.4113 54.756C13.7166 54.4524 14.1049 54.2461 14.5272 54.1631C14.9495 54.0801 15.3868 54.1241 15.7842 54.2896C16.1815 54.4552 16.521 54.7348 16.7598 55.0932C16.9986 55.4516 17.126 55.8727 17.126 56.3035C17.126 56.7344 16.9986 57.1555 16.7598 57.5139C16.521 57.8723 16.1815 58.1519 15.7842 58.3175C15.3868 58.483 14.9495 58.527 14.5272 58.444C14.1049 58.361 13.7166 58.1547 13.4113 57.8511C13.0015 57.4405 12.7714 56.8839 12.7714 56.3035C12.7714 55.7232 13.0015 55.1666 13.4113 54.756ZM16.7661 60.4028L18.9123 57.0032C18.9945 57.0032 19.0356 56.9538 19.1014 57.0032C19.1248 57.0195 19.1434 57.042 19.155 57.0681C19.1666 57.0942 19.1708 57.123 19.1672 57.1514L19.6934 59.4809C19.6854 59.5133 19.6854 59.5472 19.6934 59.5797C19.7281 59.5916 19.7657 59.5916 19.8003 59.5797L22.2014 59.0528C22.2251 59.0391 22.252 59.0319 22.2795 59.0319C22.3069 59.0319 22.3338 59.0391 22.3576 59.0528C22.4234 59.0528 22.4316 59.1352 22.4316 59.2257L20.2855 62.5924C20.2705 62.6186 20.2501 62.6413 20.2257 62.659C20.2013 62.6768 20.1735 62.6892 20.144 62.6954C20.1145 62.7016 20.084 62.7015 20.0545 62.6951C20.025 62.6887 19.9973 62.6761 19.973 62.6582L19.4632 62.3372C19.437 62.3222 19.4143 62.3018 19.3966 62.2774C19.3788 62.253 19.3664 62.2251 19.3602 62.1956C19.354 62.166 19.3541 62.1355 19.3605 62.106C19.3669 62.0765 19.3795 62.0487 19.3974 62.0244L20.3266 60.518L19.0849 60.8144C19.0192 60.8144 18.9945 60.8144 18.9534 60.8144C18.9346 60.7999 18.9196 60.7811 18.9096 60.7597C18.8996 60.7382 18.8948 60.7146 18.8958 60.6909L18.6327 59.4397L17.6542 60.9708C17.639 60.9967 17.6188 61.0193 17.5946 61.0371C17.5705 61.055 17.543 61.0678 17.5138 61.0747C17.4846 61.0816 17.4543 61.0826 17.4247 61.0774C17.3951 61.0723 17.3669 61.0612 17.3417 61.0448L16.8319 60.7156C16.8067 60.6997 16.7849 60.6789 16.7679 60.6545C16.7508 60.63 16.7389 60.6024 16.7327 60.5732C16.7266 60.544 16.7264 60.5139 16.7321 60.4846C16.7379 60.4553 16.7494 60.4275 16.7661 60.4028ZM21.8231 63.4896L25.1122 60.444C25.1474 60.4202 25.1878 60.4053 25.23 60.4006C25.2722 60.3958 25.3149 60.4014 25.3545 60.4167C25.3941 60.4321 25.4294 60.4568 25.4573 60.4888C25.4853 60.5208 25.5051 60.559 25.5151 60.6004L25.8769 65.07C25.8696 65.0907 25.8582 65.1097 25.8434 65.126C25.8286 65.1422 25.8107 65.1553 25.7908 65.1645C25.7709 65.1737 25.7493 65.1788 25.7274 65.1796C25.7055 65.1803 25.6836 65.1766 25.6631 65.1688L24.9066 64.8807C24.8714 64.8634 24.8418 64.8364 24.8214 64.8029C24.801 64.7693 24.7906 64.7306 24.7915 64.6914L24.7422 63.9752L23.4019 63.4567L22.8838 63.9505C22.8564 63.978 22.8221 63.9978 22.7846 64.0079C22.7471 64.018 22.7076 64.0181 22.67 64.0082L21.9136 63.7118C21.8933 63.703 21.8751 63.6901 21.8599 63.674C21.8447 63.6579 21.833 63.6389 21.8253 63.6182C21.8176 63.5974 21.8142 63.5754 21.8152 63.5533C21.8163 63.5312 21.8217 63.5095 21.8313 63.4896M25.3671 35.3381C25.3671 36.1613 25.6796 36.721 26.8719 36.7045C25.2273 37.4618 24.2406 36.2765 24.331 35.2558C24.3854 34.6264 24.6869 34.0442 25.1693 33.6369C25.6517 33.2295 26.2758 33.0303 26.9047 33.0827C27.3308 33.0602 27.7569 33.1253 28.1569 33.274C28.5568 33.4226 28.9221 33.6517 29.2303 33.947C29.5385 34.2424 29.7829 34.5978 29.9486 34.9914C30.1143 35.3849 30.1978 35.8083 30.1938 36.2354C30.1938 38.5731 27.9079 39.6514 26.2305 39.6514C24.553 39.6514 22.9414 38.8283 22.4151 37.3219C22.038 38.6316 21.8308 39.9844 21.7984 41.3471C21.8889 43.586 23.517 43.4296 24.0268 43.372C24.2611 43.3244 24.4779 43.2134 24.6536 43.0511C24.8292 42.8888 24.9571 42.6813 25.0232 42.4513C25.0894 42.2214 25.0912 41.9776 25.0286 41.7466C24.966 41.5157 24.8413 41.3063 24.6682 41.1413C24.9966 41.299 25.2678 41.5553 25.4439 41.8746C25.62 42.1938 25.6923 42.5601 25.6507 42.9224C25.6091 43.2848 25.4556 43.6251 25.2117 43.896C24.9678 44.1669 24.6456 44.3549 24.2899 44.4338C23.8977 44.5644 23.4798 44.5981 23.0718 44.5322C22.6638 44.4663 22.2777 44.3026 21.9464 44.0552C22.0448 45.3878 22.2818 46.7065 22.6536 47.9898C21.281 45.8688 20.5868 43.3793 20.6637 40.8532C20.6637 27.6253 32.6113 21.7398 35.0123 13.3685C36.2375 16.801 38.8195 20.2417 41.7961 23.6824L41.8536 23.7483C45.1427 27.6665 44.9783 33.091 40.0693 36.293C35.1604 39.495 29.2976 40.0547 29.2976 46.0225C29.2976 49.5703 31.6821 51.661 35.0123 51.661C38.3425 51.661 40.7682 49.5867 40.7682 46.5822C40.7682 43.5778 37.5778 42.5571 36.0813 42.5571C34.5848 42.5571 32.4797 43.6272 32.4797 45.8497C32.4797 48.0721 33.8036 48.1956 35.0288 48.1956C36.254 48.1956 37.438 47.6029 37.438 46.4423C37.4015 45.9915 37.2076 45.568 36.8904 45.2459C36.5731 44.9238 36.1528 44.7238 35.703 44.6808C36.7473 44.5326 38.2521 45.2241 38.2521 46.4423C38.224 46.8376 38.1182 47.2234 37.9409 47.5777C37.7636 47.932 37.5182 48.2478 37.2188 48.507C36.9194 48.7662 36.5718 48.9637 36.196 49.0883C35.8202 49.2128 35.4236 49.2619 35.0288 49.2328C32.9073 49.2328 31.197 48.3191 31.197 45.8332C31.2455 44.5649 31.78 43.364 32.6894 42.4797C33.5989 41.5953 34.8135 41.0954 36.0813 41.0837C38.6468 41.1001 42.7581 42.6147 42.7581 46.5246C42.8039 48.0123 42.4122 49.4806 41.6316 50.7473C43.2392 49.7997 44.627 48.5206 45.703 46.995C46.779 45.4694 47.5186 43.7322 47.8727 41.8986C47.8727 41.8986 47.8727 41.8986 47.8727 41.8492C48.3167 38.7789 46.6804 36.7869 44.7151 36.7869C44.3561 36.7553 43.9944 36.7975 43.6521 36.9108C43.3099 37.0241 42.9944 37.2062 42.725 37.4459C42.4556 37.6856 42.2378 37.9778 42.0852 38.3047C41.9325 38.6315 41.8481 38.9862 41.8372 39.3468C41.8154 39.6262 41.8551 39.9069 41.9534 40.1693C42.0517 40.4316 42.2062 40.6693 42.406 40.8654C42.6059 41.0616 42.8463 41.2115 43.1103 41.3047C43.3742 41.3979 43.6554 41.432 43.934 41.4047C45.373 41.4047 45.9239 40.4334 45.8499 39.7996C45.8176 39.579 45.7193 39.3734 45.5679 39.2099C45.4165 39.0464 45.2192 38.9326 45.002 38.8836C44.7848 38.8346 44.5578 38.8526 44.351 38.9353C44.1442 39.018 43.9673 39.1615 43.8435 39.3468C44.156 37.9146 46.5406 38.0133 46.6886 39.7666C46.7003 40.1289 46.6353 40.4895 46.4979 40.8248C46.3604 41.16 46.1537 41.4624 45.8911 41.712C45.6286 41.9616 45.3163 42.1527 44.9748 42.2728C44.6332 42.3929 44.2701 42.4393 43.9093 42.4089C42.1085 42.4089 40.2913 41.4788 40.2913 39.3304C40.3114 38.7869 40.4388 38.2527 40.6663 37.7588C40.8938 37.265 41.2169 36.8211 41.6168 36.4529C42.0167 36.0848 42.4855 35.7996 42.9961 35.6139C43.5068 35.4282 44.0491 35.3457 44.5918 35.3711C45.2063 35.3506 45.8188 35.4529 46.3934 35.6719C46.968 35.891 47.4932 36.2224 47.9385 36.6469C47.8192 35.6904 47.6295 34.7439 47.3711 33.8153C46.9024 32.3748 44.9043 32.6135 44.8549 33.8153C44.7695 33.5473 44.7662 33.2599 44.8455 32.99C44.9249 32.7201 45.0831 32.4802 45.3 32.3013C45.5168 32.1223 45.7822 32.0125 46.062 31.986C46.3417 31.9595 46.623 32.0175 46.8695 32.1526C46.3844 30.7779 45.7841 29.4527 45.1592 28.078C47.8437 31.8078 49.3035 36.2809 49.3363 40.8779C49.3972 42.59 49.0986 44.2959 48.4598 45.8854C47.8211 47.4748 46.8563 48.9124 45.6279 50.1053C42.7253 52.7561 38.9158 54.1883 34.9877 54.1058H34.5354C29.8238 53.8671 26.1894 49.916 26.1894 46.3518C26.1894 35.1653 41.3849 37.4454 41.3849 29.4115C41.3849 25.6415 38.2932 24.4727 35.0781 19.2539C33.997 20.9671 32.7493 22.5691 31.3532 24.0364L31.2546 24.1352C28.1464 27.7652 30.1198 32.7535 33.6391 32.7535C35.7524 32.7535 37.9232 31.6258 37.9232 29.3786C37.9549 28.9919 37.9043 28.6029 37.7746 28.2373C37.645 27.8717 37.4393 27.5378 37.1711 27.2577C36.903 26.9775 36.5785 26.7576 36.2191 26.6124C35.8597 26.4672 35.4736 26.4 35.0863 26.4153C34.8347 26.3997 34.5826 26.4351 34.3449 26.5193C34.1073 26.6035 33.8891 26.7349 33.7033 26.9055C33.5176 27.0761 33.3681 27.2824 33.2638 27.5122C33.1595 27.7419 33.1026 27.9904 33.0964 28.2426C33.0964 29.535 34.9877 30.4569 35.8346 29.0658C35.3413 31.5352 31.7233 30.7121 31.7233 28.4073C31.6971 27.9617 31.7668 27.5156 31.9275 27.0993C32.0883 26.6829 32.3365 26.3059 32.6553 25.9938C32.9741 25.6817 33.3561 25.4417 33.7755 25.2901C34.1949 25.1384 34.6419 25.0786 35.0863 25.1147C36.6487 25.1147 39.4937 25.9379 39.4937 29.2304C39.4937 32.9428 36.1389 34.4656 33.7378 34.4656C32.9054 34.5097 32.0734 34.3724 31.2992 34.063C30.5251 33.7536 29.8273 33.2796 29.2541 32.6737C28.681 32.0678 28.2461 31.3446 27.9796 30.5539C27.7131 29.7633 27.6213 28.9241 27.7106 28.0945C26.1669 29.9032 24.8191 31.8705 23.6897 33.9635C23.4626 34.3946 23.3516 34.8774 23.3675 35.3644C23.3834 35.8515 23.5258 36.326 23.7805 36.7413C24.0352 37.1566 24.3935 37.4984 24.8202 37.7329C25.2469 37.9675 25.7273 38.0869 26.214 38.0792C27.4886 38.0792 28.7877 37.503 28.7877 35.9555C28.788 35.7106 28.7386 35.4682 28.6426 35.2429C28.5466 35.0177 28.406 34.8143 28.2292 34.645C28.0524 34.4757 27.8431 34.3441 27.6141 34.2581C27.385 34.172 27.1409 34.1334 26.8965 34.1446C26.5424 34.1076 26.1873 34.2058 25.9023 34.4194C25.6173 34.633 25.4232 34.9464 25.3589 35.297M27.5708 65.4569L28.3519 61.5634C28.3549 61.5428 28.362 61.5229 28.3728 61.5051C28.3836 61.4872 28.3978 61.4717 28.4147 61.4594C28.4315 61.4471 28.4507 61.4384 28.471 61.4336C28.4913 61.4289 28.5123 61.4282 28.5328 61.4317L29.2647 61.5799C29.2854 61.5838 29.3051 61.5918 29.3227 61.6036C29.3402 61.6153 29.3552 61.6305 29.3667 61.6482C29.3783 61.6659 29.3861 61.6857 29.3897 61.7065C29.3934 61.7273 29.3928 61.7486 29.388 61.7692L28.7795 64.8642L30.5803 65.2346C30.6007 65.2375 30.6203 65.2446 30.6378 65.2555C30.6553 65.2664 30.6703 65.2808 30.682 65.2979C30.6936 65.3149 30.7015 65.3342 30.7052 65.3545C30.709 65.3748 30.7084 65.3957 30.7036 65.4157L30.5721 66.0742C30.5703 66.0954 30.5639 66.1159 30.5535 66.1344C30.5431 66.1529 30.5288 66.169 30.5117 66.1814C30.4945 66.1939 30.4749 66.2026 30.4541 66.2068C30.4333 66.211 30.4118 66.2107 30.3912 66.206L27.7023 65.6627C27.681 65.66 27.6606 65.6527 27.6423 65.6413C27.6241 65.6299 27.6086 65.6146 27.5969 65.5966C27.5851 65.5786 27.5775 65.5582 27.5744 65.537C27.5713 65.5157 27.5729 65.494 27.579 65.4733M32.3811 64.321C32.3908 63.8907 32.5275 63.473 32.7739 63.1203C33.0203 62.7677 33.3653 62.4958 33.7657 62.3391C34.166 62.1823 34.6037 62.1475 35.0238 62.2392C35.4438 62.3309 35.8273 62.5449 36.1261 62.8543C36.4249 63.1637 36.6256 63.5547 36.703 63.978C36.7803 64.4013 36.7309 64.8381 36.5608 65.2333C36.3908 65.6286 36.1078 65.9646 35.7474 66.1992C35.387 66.4338 34.9653 66.5564 34.5354 66.5517C34.2485 66.5463 33.9656 66.4843 33.7027 66.3692C33.4398 66.2541 33.2022 66.0881 33.0036 65.8809C32.8049 65.6736 32.6492 65.4291 32.5451 65.1614C32.4411 64.8937 32.391 64.6081 32.3975 64.321M39.9295 61.7198C40.5006 61.6186 41.0888 61.7393 41.5741 62.0573C41.6025 62.0872 41.6224 62.1241 41.6316 62.1643C41.6405 62.1837 41.6451 62.2047 41.6451 62.2261C41.6451 62.2474 41.6405 62.2684 41.6316 62.2878L41.2534 62.7734C41.2423 62.7899 41.2277 62.8036 41.2106 62.8135C41.1935 62.8235 41.1744 62.8295 41.1547 62.8311C41.1072 62.8503 41.0542 62.8503 41.0067 62.8311C40.7222 62.6869 40.3957 62.6489 40.0858 62.7241C39.9347 62.7562 39.7915 62.8181 39.6645 62.906C39.5375 62.994 39.4292 63.1063 39.3458 63.2364C39.2625 63.3666 39.2057 63.512 39.1789 63.6642C39.152 63.8165 39.1556 63.9726 39.1895 64.1234C39.2383 64.4337 39.405 64.7131 39.6548 64.9033C39.9045 65.0935 40.218 65.1798 40.5298 65.1441C40.7693 65.1265 40.9996 65.044 41.1958 64.9054L41.1136 64.3456L40.4722 64.4609C40.4319 64.4681 40.3904 64.4593 40.3566 64.4362C40.3227 64.4131 40.2993 64.3776 40.2913 64.3374L40.1844 63.7612C40.1783 63.7406 40.1767 63.7189 40.1798 63.6976C40.1829 63.6763 40.1906 63.656 40.2023 63.638C40.214 63.6199 40.2295 63.6047 40.2478 63.5933C40.266 63.5819 40.2865 63.5746 40.3078 63.5719L41.8619 63.292C41.883 63.2873 41.9049 63.287 41.9262 63.2911C41.9474 63.2953 41.9676 63.3038 41.9854 63.3162C42.0032 63.3286 42.0182 63.3446 42.0295 63.3631C42.0408 63.3816 42.0481 63.4022 42.051 63.4237L42.4292 65.5227C42.434 65.5433 42.4346 65.5646 42.431 65.5854C42.4273 65.6062 42.4195 65.6261 42.408 65.6438C42.3964 65.6615 42.3815 65.6766 42.3639 65.6884C42.3464 65.7001 42.3266 65.7082 42.3059 65.7121H42.0674C41.9359 65.7121 41.9112 65.7121 41.8619 65.7121L41.7303 65.531C41.4479 65.8176 41.077 66.0004 40.6778 66.0496C40.3959 66.0992 40.1069 66.0924 39.8276 66.0298C39.5483 65.9672 39.2841 65.8499 39.0502 65.6846C38.8163 65.5194 38.6174 65.3094 38.4649 65.0669C38.3124 64.8244 38.2094 64.5541 38.1616 64.2716C38.1095 63.9877 38.1139 63.6964 38.1746 63.4143C38.2354 63.1321 38.3512 62.8648 38.5155 62.6277C38.6798 62.3905 38.8893 62.1882 39.132 62.0324C39.3747 61.8766 39.6457 61.7704 39.9295 61.7198ZM43.1446 61.1272C43.137 61.1072 43.1338 61.0859 43.1352 61.0646C43.1366 61.0433 43.1426 61.0226 43.1528 61.0038C43.1629 60.9851 43.177 60.9687 43.194 60.9559C43.2111 60.9431 43.2307 60.9341 43.2515 60.9296L43.9504 60.6909C43.9698 60.6832 43.9906 60.6797 44.0114 60.6806C44.0322 60.6815 44.0525 60.6868 44.0712 60.6961C44.0898 60.7054 44.1062 60.7186 44.1194 60.7347C44.1326 60.7508 44.1423 60.7696 44.1478 60.7897L45.4305 64.5597C45.4419 64.6001 45.4381 64.6433 45.4199 64.6812C45.4018 64.7191 45.3705 64.749 45.3319 64.7655L44.6329 65.0042C44.6125 65.0118 44.5906 65.015 44.5688 65.0137C44.5471 65.0123 44.5258 65.0064 44.5064 64.9963C44.4871 64.9862 44.47 64.9722 44.4564 64.9551C44.4428 64.938 44.4329 64.9183 44.4274 64.8972L43.1446 61.1272ZM47.3135 59.1681C47.8439 58.8938 48.4594 58.8349 49.0321 59.0035C49.0321 59.0035 49.0979 59.0611 49.1143 59.094C49.1295 59.1338 49.1295 59.1777 49.1143 59.2175L48.8841 59.7937C48.8691 59.8285 48.8431 59.8574 48.8101 59.876C48.7622 59.8929 48.7099 59.8929 48.6621 59.876C48.3453 59.8247 48.0205 59.8827 47.7411 60.0406C47.6055 60.1146 47.4859 60.2147 47.3892 60.3353C47.2926 60.4558 47.2207 60.5943 47.1779 60.7429C47.1351 60.8914 47.1221 61.0469 47.1398 61.2005C47.1574 61.3541 47.2053 61.5026 47.2806 61.6375C47.4165 61.9213 47.6562 62.142 47.95 62.2538C48.2439 62.3657 48.5695 62.3601 48.8594 62.2384C49.0244 62.1766 49.1748 62.081 49.3008 61.9576C49.4268 61.8343 49.5257 61.686 49.5912 61.5223C49.5979 61.498 49.6093 61.4753 49.6249 61.4555C49.6404 61.4357 49.6597 61.4193 49.6817 61.407C49.6999 61.3993 49.7195 61.3954 49.7392 61.3954C49.759 61.3954 49.7786 61.3993 49.7968 61.407L50.2984 61.6046C50.3396 61.6155 50.375 61.6421 50.397 61.6787C50.4094 61.7217 50.4094 61.7673 50.397 61.8104C50.3138 62.101 50.1643 62.3682 49.9602 62.5911C49.7562 62.8139 49.5032 62.9863 49.2212 63.0945C48.9658 63.2235 48.6872 63.3004 48.4018 63.3205C48.1164 63.3406 47.8298 63.3036 47.5589 63.2116C47.2879 63.1197 47.0379 62.9746 46.8236 62.7849C46.6092 62.5952 46.4347 62.3646 46.3104 62.1067C46.1802 61.8495 46.102 61.5692 46.0803 61.2817C46.0587 60.9943 46.0939 60.7053 46.1841 60.4315C46.2742 60.1577 46.4175 59.9045 46.6057 59.6862C46.7939 59.468 47.0232 59.2891 47.2806 59.1599M52.8145 55.3899C52.8109 55.3821 52.809 55.3737 52.809 55.3652C52.809 55.3566 52.8109 55.3482 52.8145 55.3405C52.8145 55.3405 52.8145 55.3405 52.8639 55.3405L57.2137 57.1102C57.2209 57.1171 57.2266 57.1255 57.2306 57.1346C57.2345 57.1438 57.2365 57.1537 57.2365 57.1637C57.2365 57.1737 57.2345 57.1836 57.2306 57.1928C57.2266 57.202 57.2209 57.2103 57.2137 57.2172L56.7368 57.637C56.7368 57.637 56.6792 57.637 56.6216 57.637L55.7418 57.2255L54.4344 58.4355C54.5331 58.7318 54.6153 59.0611 54.714 59.3739C54.714 59.4315 54.714 59.4562 54.714 59.4891L54.2288 59.9254C54.2219 59.9326 54.2136 59.9383 54.2044 59.9423C54.1953 59.9462 54.1854 59.9482 54.1754 59.9482C54.1654 59.9482 54.1555 59.9462 54.1463 59.9423C54.1371 59.9383 54.1288 59.9326 54.1219 59.9254L52.8145 55.3899ZM58.5704 55.6697L55.1909 53.1509C55.1849 53.1425 55.1816 53.1324 55.1816 53.1221C55.1816 53.1118 55.1849 53.1017 55.1909 53.0933C55.1909 53.0933 55.1909 53.0933 55.2402 53.0933L57.9948 52.7887C58.0442 52.7887 58.0606 52.7887 58.0771 52.7887C58.0935 52.7887 58.0771 52.7887 58.0771 52.7064L57.559 49.9407C57.559 49.9407 57.559 49.8995 57.559 49.8748C57.559 49.8501 57.559 49.8748 57.6166 49.8748L60.9879 52.4019C60.9949 52.408 61.0005 52.4156 61.0044 52.4242C61.0082 52.4327 61.0102 52.4419 61.0102 52.4512C61.0102 52.4606 61.0082 52.4698 61.0044 52.4783C61.0005 52.4869 60.9949 52.4945 60.9879 52.5006L60.6426 52.9616C60.6365 52.9701 60.6284 52.977 60.6191 52.9818C60.6099 52.9866 60.5996 52.9891 60.5891 52.9891C60.5787 52.9891 60.5684 52.9866 60.5591 52.9818C60.5498 52.977 60.5417 52.9701 60.5357 52.9616L58.6609 51.5458L58.9076 53.2991C58.9142 53.3133 58.9176 53.3287 58.9176 53.3444C58.9176 53.36 58.9142 53.3755 58.9076 53.3896C58.8933 53.3957 58.8779 53.3989 58.8623 53.3989C58.8468 53.3989 58.8314 53.3957 58.8171 53.3896L57.0657 53.653L58.9651 55.0688C58.9723 55.0758 58.9781 55.0841 58.982 55.0933C58.9859 55.1024 58.9879 55.1123 58.9879 55.1223C58.9879 55.1323 58.9859 55.1422 58.982 55.1514C58.9781 55.1606 58.9723 55.1689 58.9651 55.1758L58.6198 55.6368C58.6146 55.6453 58.6074 55.6524 58.5988 55.6573C58.5901 55.6622 58.5804 55.6647 58.5704 55.6647C58.5605 55.6647 58.5507 55.6622 58.5421 55.6573C58.5334 55.6524 58.5262 55.6453 58.5211 55.6368M61.5059 49.8748C61.8221 49.6238 62.0754 49.3025 62.246 48.9364C62.4187 48.5825 62.3775 48.1133 62.1062 48.0063C61.3662 47.6359 60.6426 49.8666 59.2694 49.1834C58.6033 48.8541 58.4471 48.1874 58.8582 47.3148C59.0718 46.9419 59.3503 46.6101 59.6805 46.3353C59.6927 46.3272 59.707 46.3228 59.7216 46.3228C59.7362 46.3228 59.7506 46.3272 59.7627 46.3353L60.0587 46.7057C60.0645 46.7157 60.0676 46.7271 60.0676 46.7386C60.0676 46.7502 60.0645 46.7616 60.0587 46.7716C59.8249 47.0014 59.6231 47.2617 59.4585 47.5453C59.1131 48.245 59.5325 48.4672 59.6312 48.5166C60.4534 48.9035 61.177 46.6975 62.4844 47.3395C63.0929 47.6441 63.1094 48.566 62.838 49.1093C62.6401 49.597 62.3025 50.0151 61.8677 50.3111C61.8548 50.317 61.8408 50.3201 61.8266 50.3201C61.8124 50.3201 61.7984 50.317 61.7855 50.3111L61.5224 49.9654C61.5142 49.9413 61.5142 49.9153 61.5224 49.8913M64.3921 45.0841L60.9879 44.0552L60.6672 45.1006C60.6645 45.1107 60.6597 45.12 60.6531 45.1281C60.6465 45.1361 60.6382 45.1427 60.6289 45.1474C60.6196 45.152 60.6094 45.1547 60.599 45.1551C60.5886 45.1556 60.5782 45.1538 60.5686 45.15L60.0916 45.0018C60.0753 45.0106 60.0561 45.0124 60.0384 45.007C60.0207 45.0016 60.0058 44.9894 59.9971 44.973C59.9883 44.9566 59.9865 44.9375 59.9919 44.9197C59.9973 44.902 60.0095 44.8871 60.0258 44.8783L60.8481 42.0879C60.8555 42.0689 60.8697 42.0533 60.888 42.0442C60.9062 42.0351 60.9272 42.033 60.9468 42.0385L61.4237 42.1867C61.4427 42.1941 61.4583 42.2083 61.4674 42.2266C61.4765 42.2448 61.4785 42.2658 61.473 42.2854L61.1441 43.3308L64.5566 44.3927C64.5749 44.3984 64.5904 44.4111 64.5996 44.428C64.6088 44.4449 64.611 44.4647 64.6059 44.4832L64.4332 45.0347C64.4305 45.0448 64.4257 45.0542 64.4191 45.0622C64.4125 45.0703 64.4042 45.0769 64.3949 45.0815C64.3856 45.0862 64.3754 45.0888 64.365 45.0893C64.3546 45.0897 64.3442 45.088 64.3346 45.0841M65.3131 41.4047L61.2017 40.7956C61.192 40.7945 61.1825 40.7916 61.1739 40.7869C61.1653 40.7822 61.1577 40.7758 61.1516 40.7682C61.1455 40.7605 61.141 40.7517 61.1383 40.7423C61.1356 40.7329 61.1348 40.723 61.1359 40.7132L61.5471 37.9475C61.5509 37.9286 61.5612 37.9117 61.5763 37.8997C61.5913 37.8876 61.61 37.8813 61.6293 37.8816L62.1226 37.9557C62.1332 37.9566 62.1435 37.9598 62.1527 37.965C62.1619 37.9702 62.1699 37.9774 62.1762 37.986C62.1824 37.9945 62.1867 38.0044 62.1889 38.0148C62.191 38.0252 62.1908 38.0359 62.1884 38.0463L61.876 40.1617L63.1094 40.3428L63.3561 38.6966C63.3561 38.6472 63.3561 38.6225 63.4383 38.6307L63.9152 38.6966C63.9355 38.7006 63.9536 38.7121 63.9658 38.7289C63.978 38.7457 63.9834 38.7665 63.981 38.7871L63.7343 40.4334L64.8361 40.598L65.1486 38.4825C65.1526 38.4622 65.1641 38.4441 65.1809 38.4318C65.1977 38.4196 65.2185 38.4142 65.239 38.4167L65.7324 38.4908C65.7423 38.4927 65.7516 38.4966 65.7599 38.5023C65.7682 38.5079 65.7752 38.5152 65.7806 38.5237C65.786 38.5322 65.7896 38.5416 65.7912 38.5515C65.7928 38.5614 65.7924 38.5716 65.79 38.5813L65.3871 41.3388C65.3862 41.3494 65.383 41.3597 65.3778 41.3689C65.3726 41.3782 65.3654 41.3862 65.3569 41.3924C65.3483 41.3987 65.3385 41.403 65.3281 41.4051C65.3177 41.4072 65.3069 41.4071 65.2966 41.4047M69.926 35.5028C69.926 28.5773 67.8736 21.8074 64.0285 16.0501C60.1834 10.2928 54.7186 5.80683 48.3256 3.15996C41.9326 0.513081 34.899 -0.175696 28.1148 1.1808C21.3306 2.5373 15.101 5.87809 10.2143 10.7803C5.32756 15.6826 2.00351 21.9259 0.662821 28.7201C-0.677865 35.5143 0.0250863 42.554 2.6827 48.9481C5.34032 55.3422 9.83313 60.8033 15.5925 64.6402C21.3519 68.4772 28.1189 70.5174 35.037 70.5027C44.3098 70.5027 53.2027 66.8153 59.7596 60.2515C66.3164 53.6877 70 44.7853 70 35.5028" fill="#2F2614"/>
</svg>
