<svg width="305" height="70" viewBox="0 0 305 70" fill="none" xmlns="http://www.w3.org/2000/svg">
<path d="M55.0922 56.4922L53.9081 56.0147L54.2535 57.2495L55.0922 56.4922ZM33.4336 63.9004C33.4242 64.2075 33.5336 64.5064 33.7388 64.7349C33.944 64.9633 34.2294 65.1038 34.5354 65.1269C34.6913 65.1227 34.8448 65.0875 34.9869 65.0233C35.129 64.9592 35.257 64.8673 35.3634 64.7532C35.4698 64.6391 35.5524 64.5049 35.6065 64.3585C35.6605 64.2121 35.685 64.0564 35.6784 63.9004C35.6784 63.6035 35.5606 63.3188 35.3508 63.1088C35.1411 62.8989 34.8567 62.781 34.5601 62.781C34.2635 62.781 33.9791 62.8989 33.7693 63.1088C33.5596 63.3188 33.4418 63.6035 33.4418 63.9004M24.6188 61.752L24.0679 62.2377L24.6682 62.4846L24.6188 61.752ZM14.1513 54.9776C14.0493 55.0857 13.9695 55.2128 13.9165 55.3518C13.8636 55.4908 13.8385 55.6388 13.8427 55.7875C13.8469 55.9361 13.8803 56.0825 13.941 56.2183C14.0017 56.354 14.0886 56.4764 14.1965 56.5786C14.3045 56.6807 14.4315 56.7606 14.5704 56.8136C14.7092 56.8666 14.857 56.8917 15.0056 56.8875C15.1541 56.8833 15.3003 56.8499 15.4359 56.7891C15.5715 56.7283 15.6938 56.6414 15.7959 56.5333C15.8979 56.4252 15.9777 56.2981 16.0306 56.1591C16.0836 56.0201 16.1087 55.8721 16.1045 55.7234C16.1003 55.5748 16.0669 55.4284 16.0061 55.2926C15.9454 55.1569 15.8586 55.0345 15.7506 54.9323C15.6426 54.8302 15.5156 54.7503 15.3768 54.6973C15.238 54.6443 15.0901 54.6192 14.9416 54.6234C14.7931 54.6276 14.6469 54.661 14.5113 54.7218C14.3757 54.7826 14.2534 54.8695 14.1513 54.9776ZM12.0463 50.582L11.3391 51.0759L11.8736 51.8332C11.9723 51.9731 12.2025 51.9813 12.4163 51.8332C12.6301 51.685 12.6712 51.4792 12.5726 51.3393L12.0463 50.582ZM9.045 47.0837H8.31318L8.58453 47.6763L9.045 47.0837ZM61.2428 24.6201L62.5173 24.7189L62.098 23.6653L61.2428 24.6201ZM61.9993 30.5961L64.9595 29.9623L64.8279 29.3202C64.7981 29.1269 64.7285 28.9419 64.6236 28.7768C64.5188 28.6117 64.3808 28.4702 64.2186 28.3611C64.0564 28.2521 63.8733 28.1779 63.681 28.1432C63.4886 28.1085 63.2912 28.1141 63.1011 28.1596C62.9051 28.1901 62.7173 28.2601 62.5491 28.3655C62.3809 28.4709 62.2359 28.6094 62.1228 28.7726C62.0098 28.9358 61.9311 29.1203 61.8914 29.3149C61.8518 29.5096 61.8522 29.7102 61.8924 29.9047L61.9993 30.5961ZM62.3611 35.2633H63.7096V34.0369C63.7083 33.9532 63.689 33.8709 63.6532 33.7954C63.6173 33.7199 63.5657 33.6529 63.5018 33.5991C63.4379 33.5452 63.3632 33.5057 63.2827 33.4833C63.2022 33.4608 63.1179 33.4559 63.0354 33.4689C62.9521 33.4609 62.8681 33.4703 62.7887 33.4963C62.7092 33.5223 62.6359 33.5644 62.5734 33.62C62.5109 33.6756 62.4605 33.7435 62.4254 33.8195C62.3903 33.8955 62.3712 33.9779 62.3693 34.0615L62.3611 35.2633ZM64.3428 34.3496V35.2222H65.8969C65.9069 35.2208 65.9171 35.2218 65.9267 35.225C65.9363 35.2283 65.945 35.2337 65.9522 35.2409C65.9594 35.248 65.9648 35.2568 65.968 35.2664C65.9713 35.276 65.9722 35.2862 65.9709 35.2963V35.8725C65.9709 35.8921 65.9631 35.911 65.9492 35.9248C65.9353 35.9387 65.9165 35.9465 65.8969 35.9465L61.7855 36.0289C61.7444 36.0289 61.7115 36.0289 61.7115 35.9548V34.0122C61.7104 33.8418 61.7433 33.673 61.8084 33.5156C61.8735 33.3582 61.9694 33.2155 62.0905 33.0958C62.2116 32.9761 62.3554 32.8819 62.5135 32.8188C62.6715 32.7556 62.8406 32.7248 63.0107 32.7281C63.2821 32.7268 63.5481 32.8037 63.777 32.9497C64.0059 33.0957 64.1881 33.3045 64.3017 33.5512L65.9462 32.7281C65.9562 32.7267 65.9665 32.7277 65.9761 32.7309C65.9857 32.7342 65.9944 32.7396 66.0015 32.7468C66.0087 32.7539 66.0141 32.7627 66.0173 32.7723C66.0206 32.7819 66.0216 32.7921 66.0202 32.8021V33.4524C66.0218 33.4774 66.0175 33.5024 66.0074 33.5253C65.9974 33.5482 65.9821 33.5684 65.9627 33.5841L64.3428 34.3496ZM65.6913 30.522C65.6937 30.5313 65.6941 30.541 65.6924 30.5504C65.6908 30.5598 65.687 30.5687 65.6816 30.5765C65.6761 30.5844 65.669 30.5909 65.6607 30.5957C65.6525 30.6005 65.6433 30.6035 65.6337 30.6044L61.5717 31.4275C61.5522 31.4303 61.5324 31.426 61.5158 31.4155C61.4992 31.4049 61.487 31.3887 61.4813 31.3699L61.2017 29.9541C61.1425 29.6781 61.1406 29.3929 61.1962 29.1161C61.2517 28.8394 61.3636 28.577 61.5248 28.3454C61.686 28.1138 61.893 27.9179 62.1331 27.7698C62.3732 27.6217 62.6411 27.5246 62.9202 27.4846C63.1908 27.4212 63.4715 27.414 63.745 27.4635C64.0185 27.513 64.2789 27.6182 64.5101 27.7725C64.7414 27.9268 64.9385 28.127 65.0893 28.3607C65.2402 28.5943 65.3415 28.8565 65.3871 29.1309L65.6913 30.522ZM64.5401 25.4433C64.5523 25.4568 64.559 25.4744 64.559 25.4926C64.559 25.5109 64.5523 25.5284 64.5401 25.542L59.8614 25.1963V25.1552C59.8574 25.1362 59.8574 25.1165 59.8614 25.0975L63.0107 21.6239C63.0198 21.6199 63.0297 21.6178 63.0397 21.6177C63.0497 21.6176 63.0596 21.6195 63.0688 21.6234C63.078 21.6272 63.0864 21.6329 63.0933 21.64C63.1003 21.6472 63.1058 21.6557 63.1094 21.665L63.3478 22.2659C63.3478 22.3071 63.3478 22.3235 63.3478 22.3729C63.1176 22.6116 62.8956 22.8668 62.6818 23.0973L63.3314 24.7436C63.6438 24.7436 63.981 24.7436 64.3099 24.8094C64.3674 24.8094 64.3921 24.8094 64.4086 24.8506L64.5401 25.4433ZM62.0733 19.813C62.0803 19.8191 62.0859 19.8267 62.0898 19.8353C62.0936 19.8438 62.0956 19.853 62.0956 19.8623C62.0956 19.8717 62.0936 19.8809 62.0898 19.8894C62.0859 19.898 62.0803 19.9056 62.0733 19.9117L58.5375 22.2083C58.5375 22.2083 58.5375 22.2083 58.4882 22.2083C58.4389 22.2083 58.4882 22.2083 58.4882 22.1507L59.1625 19.459C59.1625 19.4179 59.1625 19.4014 59.1625 19.3767C59.1625 19.352 59.1625 19.3767 59.0885 19.3767L56.3339 18.8581C56.3339 18.8581 56.2927 18.8581 56.2763 18.8581C56.2598 18.8581 56.2763 18.8581 56.2763 18.8005L59.8121 16.5039C59.827 16.4912 59.8459 16.4842 59.8655 16.4842C59.8851 16.4842 59.9041 16.4912 59.919 16.5039L60.2314 16.9896C60.2386 16.9965 60.2444 17.0048 60.2483 17.014C60.2522 17.0232 60.2542 17.0331 60.2542 17.0431C60.2542 17.0531 60.2522 17.063 60.2483 17.0722C60.2444 17.0814 60.2386 17.0897 60.2314 17.0966L58.2169 18.3725L59.9436 18.7429C59.993 18.7429 60.0176 18.7429 60.0341 18.784C60.0505 18.8252 60.0258 18.8581 60.0258 18.8581L59.664 20.5867L61.6704 19.3108C61.6773 19.3036 61.6856 19.2979 61.6948 19.294C61.704 19.29 61.7139 19.288 61.7238 19.288C61.7338 19.288 61.7437 19.29 61.7529 19.294C61.7621 19.2979 61.7704 19.3036 61.7773 19.3108L62.0733 19.813ZM56.0707 14.1004C56.0417 14.1297 56.0071 14.153 55.969 14.1689C55.9309 14.1849 55.89 14.193 55.8487 14.193C55.8074 14.193 55.7665 14.1849 55.7284 14.1689C55.6903 14.153 55.6558 14.1297 55.6267 14.1004C51.0832 9.63723 45.2122 6.77543 38.9006 5.94724C32.589 5.11905 26.1796 6.36945 20.6405 9.50957C15.1014 12.6497 10.7336 17.509 8.19667 23.3534C5.65979 29.1978 5.09169 35.7099 6.57819 41.9061C6.58797 41.9472 6.58955 41.9898 6.58285 42.0315C6.57615 42.0732 6.5613 42.1131 6.53915 42.1491C6.517 42.185 6.48798 42.2162 6.45376 42.2409C6.41954 42.2656 6.38079 42.2833 6.33973 42.293H6.26573C6.19384 42.2917 6.12437 42.2668 6.06793 42.2222C6.0115 42.1776 5.97122 42.1157 5.95326 42.046C4.89491 37.6352 4.84861 33.0416 5.81783 28.6102C6.78706 24.1789 8.74663 20.0249 11.5494 16.4604C14.3521 12.8958 17.9252 10.0132 22.0003 8.02914C26.0754 6.04504 30.5466 5.01099 35.0781 5.00464C42.9554 4.98685 50.5188 8.09471 56.1118 13.6476C56.1716 13.7078 56.2051 13.7892 56.2051 13.874C56.2051 13.9588 56.1716 14.0402 56.1118 14.1004M6.17528 46.0218L10.6484 46.0959C10.6882 46.1069 10.7253 46.1256 10.7578 46.151C10.7902 46.1765 10.8174 46.2081 10.8376 46.244C10.856 46.2841 10.8655 46.3276 10.8655 46.3716C10.8655 46.4157 10.856 46.4592 10.8376 46.4992L8.00894 49.9646C7.98979 49.9757 7.96851 49.9826 7.9465 49.9849C7.92449 49.9871 7.90226 49.9847 7.88127 49.9777C7.86028 49.9707 7.84102 49.9593 7.82475 49.9443C7.80849 49.9292 7.7956 49.9109 7.78693 49.8906L7.40046 49.1497C7.38844 49.1122 7.3859 49.0722 7.39308 49.0334C7.40025 48.9947 7.41691 48.9583 7.44157 48.9275L7.90205 48.3842L7.30179 47.0754H6.57819C6.54015 47.0753 6.50278 47.0654 6.46966 47.0467C6.43654 47.0279 6.40879 47.001 6.38907 46.9684L6.05194 46.2358C6.04258 46.2154 6.0375 46.1932 6.03702 46.1707C6.03653 46.1483 6.04066 46.1259 6.04913 46.1051C6.05761 46.0843 6.07025 46.0654 6.08629 46.0497C6.10233 46.0339 6.12142 46.0216 6.14239 46.0136M8.897 51.4875L12.145 49.1991C12.1589 49.1834 12.1759 49.1707 12.1951 49.1621C12.2142 49.1534 12.235 49.149 12.256 49.149C12.277 49.149 12.2977 49.1534 12.3169 49.1621C12.336 49.1707 12.3531 49.1834 12.367 49.1991L13.4442 50.7384C13.5487 50.8869 13.6219 51.0553 13.6592 51.2331C13.6964 51.411 13.6969 51.5945 13.6608 51.7726C13.6246 51.9507 13.5524 52.1194 13.4487 52.2686C13.345 52.4177 13.2119 52.5441 13.0577 52.6399C12.8624 52.7935 12.6286 52.8902 12.3819 52.9192C12.1353 52.9483 11.8854 52.9086 11.6598 52.8045L10.9198 54.2532C10.8874 54.28 10.8467 54.2946 10.8047 54.2946C10.7627 54.2946 10.722 54.28 10.6895 54.2532L10.2784 53.6688C10.2464 53.626 10.2291 53.5741 10.2291 53.5206C10.2291 53.4672 10.2464 53.4152 10.2784 53.3725L10.928 52.2201L10.5498 51.6932L9.57126 52.3847C9.55673 52.3994 9.53944 52.411 9.52039 52.419C9.50133 52.4269 9.4809 52.431 9.46025 52.431C9.43961 52.431 9.41917 52.4269 9.40012 52.419C9.38106 52.411 9.36377 52.3994 9.34925 52.3847L8.92166 51.7838C8.90808 51.7671 8.89828 51.7477 8.89295 51.7269C8.88762 51.706 8.88689 51.6843 8.8908 51.6631C8.89471 51.642 8.90318 51.6219 8.91561 51.6044C8.92804 51.5869 8.94413 51.5722 8.96278 51.5615M13.4113 54.2532C13.7166 53.9496 14.1049 53.7433 14.5272 53.6603C14.9495 53.5773 15.3868 53.6213 15.7842 53.7868C16.1815 53.9523 16.521 54.2319 16.7598 54.5903C16.9986 54.9487 17.126 55.3699 17.126 55.8007C17.126 56.2315 16.9986 56.6527 16.7598 57.0111C16.521 57.3695 16.1815 57.6491 15.7842 57.8146C15.3868 57.9801 14.9495 58.0242 14.5272 57.9412C14.1049 57.8582 13.7166 57.6519 13.4113 57.3482C13.0015 56.9377 12.7714 56.3811 12.7714 55.8007C12.7714 55.2204 13.0015 54.6638 13.4113 54.2532ZM16.7661 59.9L18.9123 56.5004C18.9945 56.5004 19.0356 56.451 19.1014 56.5004C19.1248 56.5167 19.1434 56.5392 19.155 56.5653C19.1666 56.5914 19.1708 56.6202 19.1672 56.6486L19.6934 58.978C19.6854 59.0105 19.6854 59.0444 19.6934 59.0768C19.7281 59.0887 19.7657 59.0887 19.8003 59.0768L22.2014 58.55C22.2251 58.5363 22.252 58.5291 22.2795 58.5291C22.3069 58.5291 22.3338 58.5363 22.3576 58.55C22.4234 58.55 22.4316 58.6323 22.4316 58.7229L20.2855 62.0895C20.2705 62.1157 20.2501 62.1384 20.2257 62.1562C20.2013 62.174 20.1735 62.1864 20.144 62.1926C20.1145 62.1988 20.084 62.1987 20.0545 62.1923C20.025 62.1859 19.9973 62.1733 19.973 62.1554L19.4632 61.8344C19.437 61.8193 19.4143 61.799 19.3966 61.7746C19.3788 61.7502 19.3664 61.7223 19.3602 61.6927C19.354 61.6632 19.3541 61.6327 19.3605 61.6032C19.3669 61.5737 19.3795 61.5459 19.3974 61.5216L20.3266 60.0152L19.0849 60.3115C19.0192 60.3115 18.9945 60.3115 18.9534 60.3115C18.9346 60.2971 18.9196 60.2783 18.9096 60.2568C18.8996 60.2353 18.8948 60.2118 18.8958 60.1881L18.6327 58.9369L17.6542 60.4679C17.639 60.4939 17.6188 60.5164 17.5946 60.5343C17.5705 60.5522 17.543 60.5649 17.5138 60.5719C17.4846 60.5788 17.4543 60.5797 17.4247 60.5746C17.3951 60.5695 17.3669 60.5584 17.3417 60.542L16.8319 60.2128C16.8067 60.1969 16.7849 60.1761 16.7679 60.1516C16.7508 60.1272 16.7389 60.0995 16.7327 60.0703C16.7266 60.0411 16.7264 60.011 16.7321 59.9818C16.7379 59.9525 16.7494 59.9247 16.7661 59.9ZM21.8231 62.9868L25.1122 59.9411C25.1474 59.9174 25.1878 59.9025 25.23 59.8977C25.2722 59.893 25.3149 59.8985 25.3545 59.9139C25.3941 59.9293 25.4294 59.954 25.4573 59.986C25.4853 60.0179 25.5051 60.0562 25.5151 60.0975L25.8769 64.5672C25.8696 64.5879 25.8582 64.6069 25.8434 64.6231C25.8286 64.6394 25.8107 64.6525 25.7908 64.6617C25.7709 64.6709 25.7493 64.676 25.7274 64.6767C25.7055 64.6775 25.6836 64.6738 25.6631 64.666L24.9066 64.3779C24.8714 64.3606 24.8418 64.3336 24.8214 64.3C24.801 64.2665 24.7906 64.2278 24.7915 64.1885L24.7422 63.4724L23.4019 62.9538L22.8838 63.4477C22.8564 63.4752 22.8221 63.495 22.7846 63.5051C22.7471 63.5152 22.7076 63.5153 22.67 63.5053L21.9136 63.209C21.8933 63.2001 21.8751 63.1873 21.8599 63.1712C21.8447 63.1551 21.833 63.1361 21.8253 63.1154C21.8176 63.0946 21.8142 63.0725 21.8152 63.0504C21.8163 63.0283 21.8217 63.0067 21.8313 62.9868M25.3671 34.8353C25.3671 35.6584 25.6796 36.2182 26.8719 36.2017C25.2273 36.959 24.2406 35.7737 24.331 34.753C24.3854 34.1236 24.6869 33.5414 25.1693 33.134C25.6517 32.7267 26.2758 32.5274 26.9047 32.5799C27.3308 32.5574 27.7569 32.6225 28.1569 32.7711C28.5568 32.9198 28.9221 33.1488 29.2303 33.4442C29.5385 33.7396 29.7829 34.095 29.9486 34.4885C30.1143 34.8821 30.1978 35.3055 30.1938 35.7325C30.1938 38.0702 27.9079 39.1486 26.2305 39.1486C24.553 39.1486 22.9414 38.3254 22.4151 36.8191C22.038 38.1288 21.8308 39.4816 21.7984 40.8442C21.8889 43.0832 23.517 42.9268 24.0268 42.8692C24.2611 42.8216 24.4779 42.7106 24.6536 42.5483C24.8292 42.3859 24.9571 42.1785 25.0232 41.9485C25.0894 41.7185 25.0912 41.4748 25.0286 41.2438C24.966 41.0128 24.8413 40.8034 24.6682 40.6385C24.9966 40.7962 25.2678 41.0525 25.4439 41.3718C25.62 41.691 25.6923 42.0573 25.6507 42.4196C25.6091 42.7819 25.4556 43.1222 25.2117 43.3931C24.9678 43.664 24.6456 43.8521 24.2899 43.931C23.8977 44.0615 23.4798 44.0953 23.0718 44.0293C22.6638 43.9634 22.2777 43.7998 21.9464 43.5524C22.0448 44.885 22.2818 46.2037 22.6536 47.487C21.281 45.3659 20.5868 42.8764 20.6637 40.3504C20.6637 27.1225 32.6113 21.237 35.0123 12.8656C36.2375 16.2981 38.8195 19.7389 41.7961 23.1796L41.8536 23.2455C45.1427 27.1636 44.9783 32.5881 40.0693 35.7901C35.1604 38.9922 29.2976 39.5519 29.2976 45.5197C29.2976 49.0674 31.6821 51.1582 35.0123 51.1582C38.3425 51.1582 40.7682 49.0839 40.7682 46.0794C40.7682 43.075 37.5778 42.0543 36.0813 42.0543C34.5848 42.0543 32.4797 43.1243 32.4797 45.3468C32.4797 47.5693 33.8036 47.6928 35.0288 47.6928C36.254 47.6928 37.438 47.1001 37.438 45.9395C37.4015 45.4887 37.2076 45.0651 36.8904 44.7431C36.5731 44.421 36.1528 44.2209 35.703 44.178C36.7473 44.0298 38.2521 44.7212 38.2521 45.9395C38.224 46.3348 38.1182 46.7206 37.9409 47.0749C37.7636 47.4292 37.5182 47.745 37.2188 48.0042C36.9194 48.2634 36.5718 48.4609 36.196 48.5855C35.8202 48.71 35.4236 48.7591 35.0288 48.7299C32.9073 48.7299 31.197 47.8162 31.197 45.3304C31.2455 44.0621 31.78 42.8612 32.6894 41.9769C33.5989 41.0925 34.8135 40.5926 36.0813 40.5808C38.6468 40.5973 42.7581 42.1119 42.7581 46.0218C42.8039 47.5094 42.4122 48.9778 41.6316 50.2445C43.2392 49.2968 44.627 48.0178 45.703 46.4922C46.779 44.9666 47.5186 43.2293 47.8727 41.3957C47.8727 41.3957 47.8727 41.3957 47.8727 41.3464C48.3167 38.276 46.6804 36.284 44.7151 36.284C44.3561 36.2525 43.9944 36.2947 43.6521 36.408C43.3099 36.5213 42.9944 36.7034 42.725 36.9431C42.4556 37.1827 42.2378 37.475 42.0852 37.8018C41.9325 38.1287 41.8481 38.4833 41.8372 38.844C41.8154 39.1234 41.8551 39.4041 41.9534 39.6665C42.0517 39.9288 42.2062 40.1664 42.406 40.3626C42.6059 40.5588 42.8463 40.7087 43.1103 40.8019C43.3742 40.895 43.6554 40.9292 43.934 40.9019C45.373 40.9019 45.9239 39.9306 45.8499 39.2967C45.8176 39.0762 45.7193 38.8706 45.5679 38.7071C45.4165 38.5436 45.2192 38.4298 45.002 38.3808C44.7848 38.3318 44.5578 38.3498 44.351 38.4325C44.1442 38.5152 43.9673 38.6586 43.8435 38.844C44.156 37.4117 46.5406 37.5105 46.6886 39.2638C46.7003 39.626 46.6353 39.9866 46.4979 40.3219C46.3604 40.6572 46.1537 40.9596 45.8911 41.2092C45.6286 41.4587 45.3163 41.6499 44.9748 41.77C44.6332 41.8901 44.2701 41.9365 43.9093 41.9061C42.1085 41.9061 40.2913 40.9759 40.2913 38.8275C40.3114 38.284 40.4388 37.7499 40.6663 37.256C40.8938 36.7621 41.2169 36.3183 41.6168 35.9501C42.0167 35.5819 42.4855 35.2968 42.9961 35.1111C43.5068 34.9254 44.0491 34.8428 44.5918 34.8682C45.2063 34.8478 45.8188 34.95 46.3934 35.1691C46.968 35.3882 47.4932 35.7196 47.9385 36.1441C47.8192 35.1875 47.6295 34.2411 47.3711 33.3125C46.9024 31.872 44.9043 32.1107 44.8549 33.3125C44.7695 33.0445 44.7662 32.757 44.8455 32.4872C44.9249 32.2173 45.0831 31.9774 45.3 31.7984C45.5168 31.6195 45.7822 31.5097 46.062 31.4832C46.3417 31.4567 46.623 31.5147 46.8695 31.6497C46.3844 30.2751 45.7841 28.9498 45.1592 27.5752C47.8437 31.305 49.3035 35.7781 49.3363 40.375C49.3972 42.0872 49.0986 43.7931 48.4598 45.3825C47.8211 46.972 46.8563 48.4096 45.6279 49.6025C42.7253 52.2532 38.9158 53.6855 34.9877 53.6029H34.5354C29.8238 53.3642 26.1894 49.4131 26.1894 45.8489C26.1894 34.6624 41.3849 36.9425 41.3849 28.9087C41.3849 25.1387 38.2932 23.9698 35.0781 18.7511C33.997 20.4643 32.7493 22.0662 31.3532 23.5336L31.2546 23.6323C28.1464 27.2624 30.1198 32.2506 33.6391 32.2506C35.7524 32.2506 37.9232 31.1229 37.9232 28.8758C37.9549 28.4891 37.9043 28.1001 37.7746 27.7345C37.645 27.3688 37.4393 27.0349 37.1711 26.7548C36.903 26.4747 36.5785 26.2548 36.2191 26.1096C35.8597 25.9643 35.4736 25.8972 35.0863 25.9124C34.8347 25.8969 34.5826 25.9323 34.3449 26.0165C34.1073 26.1007 33.8891 26.232 33.7033 26.4026C33.5176 26.5732 33.3681 26.7796 33.2638 27.0093C33.1595 27.2391 33.1026 27.4875 33.0964 27.7398C33.0964 29.0322 34.9877 29.9541 35.8346 28.563C35.3413 31.0324 31.7233 30.2092 31.7233 27.9044C31.6971 27.4588 31.7668 27.0128 31.9275 26.5964C32.0883 26.1801 32.3365 25.8031 32.6553 25.491C32.9741 25.1789 33.3561 24.9389 33.7755 24.7872C34.1949 24.6356 34.6419 24.5758 35.0863 24.6119C36.6487 24.6119 39.4937 25.435 39.4937 28.7276C39.4937 32.44 36.1389 33.9628 33.7378 33.9628C32.9054 34.0069 32.0734 33.8695 31.2992 33.5601C30.5251 33.2508 29.8273 32.7767 29.2541 32.1709C28.681 31.565 28.2461 30.8417 27.9796 30.0511C27.7131 29.2605 27.6213 28.4213 27.7106 27.5917C26.1669 29.4003 24.8191 31.3676 23.6897 33.4607C23.4626 33.8917 23.3516 34.3746 23.3675 34.8616C23.3834 35.3487 23.5258 35.8232 23.7805 36.2385C24.0352 36.6538 24.3935 36.9955 24.8202 37.2301C25.2469 37.4647 25.7273 37.584 26.214 37.5764C27.4886 37.5764 28.7877 37.0002 28.7877 35.4527C28.788 35.2078 28.7386 34.9654 28.6426 34.7401C28.5466 34.5148 28.406 34.3114 28.2292 34.1421C28.0524 33.9729 27.8431 33.8412 27.6141 33.7552C27.385 33.6692 27.1409 33.6306 26.8965 33.6417C26.5424 33.6048 26.1873 33.7029 25.9023 33.9166C25.6173 34.1302 25.4232 34.4436 25.3589 34.7941M27.5708 64.9541L28.3519 61.0606C28.3549 61.0399 28.362 61.0201 28.3728 61.0022C28.3836 60.9844 28.3978 60.9689 28.4147 60.9566C28.4315 60.9443 28.4507 60.9355 28.471 60.9308C28.4913 60.926 28.5123 60.9254 28.5328 60.9289L29.2647 61.0771C29.2854 61.081 29.3051 61.089 29.3227 61.1007C29.3402 61.1125 29.3552 61.1277 29.3667 61.1453C29.3783 61.163 29.3861 61.1829 29.3897 61.2037C29.3934 61.2245 29.3928 61.2458 29.388 61.2664L28.7795 64.3614L30.5803 64.7318C30.6007 64.7347 30.6203 64.7418 30.6378 64.7527C30.6553 64.7636 30.6703 64.778 30.682 64.7951C30.6936 64.8121 30.7015 64.8314 30.7052 64.8517C30.709 64.872 30.7084 64.8928 30.7036 64.9129L30.5721 65.5714C30.5703 65.5926 30.5639 65.6131 30.5535 65.6316C30.5431 65.6501 30.5288 65.6661 30.5117 65.6786C30.4945 65.6911 30.4749 65.6998 30.4541 65.704C30.4333 65.7082 30.4118 65.7079 30.3912 65.7031L27.7023 65.1598C27.681 65.1572 27.6606 65.1499 27.6423 65.1384C27.6241 65.127 27.6086 65.1118 27.5969 65.0938C27.5851 65.0758 27.5775 65.0554 27.5744 65.0341C27.5713 65.0128 27.5729 64.9911 27.579 64.9705M32.3811 63.8181C32.3908 63.3879 32.5275 62.9702 32.7739 62.6175C33.0203 62.2648 33.3653 61.993 33.7657 61.8362C34.166 61.6795 34.6037 61.6447 35.0238 61.7364C35.4438 61.8281 35.8273 62.0421 36.1261 62.3515C36.4249 62.6609 36.6256 63.0518 36.703 63.4751C36.7803 63.8985 36.7309 64.3352 36.5608 64.7305C36.3908 65.1257 36.1078 65.4618 35.7474 65.6964C35.387 65.931 34.9653 66.0536 34.5354 66.0488C34.2485 66.0435 33.9656 65.9815 33.7027 65.8664C33.4398 65.7513 33.2022 65.5853 33.0036 65.378C32.8049 65.1708 32.6492 64.9263 32.5451 64.6586C32.4411 64.3909 32.391 64.1053 32.3975 63.8181M39.9295 61.217C40.5006 61.1158 41.0888 61.2365 41.5741 61.5545C41.6025 61.5844 41.6224 61.6213 41.6316 61.6615C41.6405 61.6809 41.6451 61.7019 41.6451 61.7232C41.6451 61.7445 41.6405 61.7656 41.6316 61.785L41.2534 62.2706C41.2423 62.287 41.2277 62.3007 41.2106 62.3107C41.1935 62.3207 41.1744 62.3267 41.1547 62.3282C41.1072 62.3475 41.0542 62.3475 41.0067 62.3282C40.7222 62.184 40.3957 62.1461 40.0858 62.2212C39.9347 62.2534 39.7915 62.3153 39.6645 62.4032C39.5375 62.4912 39.4292 62.6035 39.3458 62.7336C39.2625 62.8637 39.2057 63.0092 39.1789 63.1614C39.152 63.3137 39.1556 63.4697 39.1895 63.6206C39.2383 63.9309 39.405 64.2103 39.6548 64.4005C39.9045 64.5907 40.218 64.6769 40.5298 64.6413C40.7693 64.6237 40.9996 64.5411 41.1958 64.4026L41.1136 63.8428L40.4722 63.9581C40.4319 63.9653 40.3904 63.9564 40.3566 63.9334C40.3227 63.9103 40.2993 63.8748 40.2913 63.8346L40.1844 63.2584C40.1783 63.2378 40.1767 63.2161 40.1798 63.1948C40.1829 63.1735 40.1906 63.1531 40.2023 63.1351C40.214 63.1171 40.2295 63.1019 40.2478 63.0905C40.266 63.0791 40.2865 63.0718 40.3078 63.0691L41.8619 62.7892C41.883 62.7844 41.9049 62.7841 41.9262 62.7883C41.9474 62.7925 41.9676 62.801 41.9854 62.8134C42.0032 62.8258 42.0182 62.8417 42.0295 62.8602C42.0408 62.8787 42.0481 62.8994 42.051 62.9209L42.4292 65.0199C42.434 65.0405 42.4346 65.0618 42.431 65.0826C42.4273 65.1034 42.4195 65.1233 42.408 65.1409C42.3964 65.1586 42.3815 65.1738 42.3639 65.1855C42.3464 65.1973 42.3266 65.2053 42.3059 65.2092H42.0674C41.9359 65.2092 41.9112 65.2092 41.8619 65.2092L41.7303 65.0281C41.4479 65.3148 41.077 65.4976 40.6778 65.5467C40.3959 65.5963 40.1069 65.5896 39.8276 65.527C39.5483 65.4643 39.2841 65.347 39.0502 65.1818C38.8163 65.0165 38.6174 64.8066 38.4649 64.5641C38.3124 64.3216 38.2094 64.0513 38.1616 63.7687C38.1095 63.4849 38.1139 63.1935 38.1746 62.9114C38.2354 62.6293 38.3512 62.362 38.5155 62.1248C38.6798 61.8877 38.8893 61.6854 39.132 61.5296C39.3747 61.3738 39.6457 61.2676 39.9295 61.217ZM43.1446 60.6243C43.137 60.6044 43.1338 60.5831 43.1352 60.5618C43.1366 60.5405 43.1426 60.5198 43.1528 60.501C43.1629 60.4822 43.177 60.4659 43.194 60.4531C43.2111 60.4403 43.2307 60.4313 43.2515 60.4268L43.9504 60.1881C43.9698 60.1804 43.9906 60.1769 44.0114 60.1778C44.0322 60.1787 44.0525 60.184 44.0712 60.1933C44.0898 60.2026 44.1062 60.2158 44.1194 60.2319C44.1326 60.248 44.1423 60.2667 44.1478 60.2868L45.4305 64.0568C45.4419 64.0973 45.4381 64.1405 45.4199 64.1784C45.4018 64.2162 45.3705 64.2462 45.3319 64.2626L44.6329 64.5013C44.6125 64.5089 44.5906 64.5122 44.5688 64.5108C44.5471 64.5095 44.5258 64.5036 44.5064 64.4935C44.4871 64.4834 44.47 64.4694 44.4564 64.4523C44.4428 64.4352 44.4329 64.4155 44.4274 64.3943L43.1446 60.6243ZM47.3135 58.6653C47.8439 58.391 48.4594 58.332 49.0321 58.5006C49.0321 58.5006 49.0979 58.5582 49.1143 58.5912C49.1295 58.6309 49.1295 58.6749 49.1143 58.7146L48.8841 59.2908C48.8691 59.3257 48.8431 59.3546 48.8101 59.3732C48.7622 59.3901 48.7099 59.3901 48.6621 59.3732C48.3453 59.3219 48.0205 59.3799 47.7411 59.5378C47.6055 59.6117 47.4859 59.7119 47.3892 59.8324C47.2926 59.953 47.2207 60.0915 47.1779 60.24C47.1351 60.3885 47.1221 60.5441 47.1398 60.6977C47.1574 60.8512 47.2053 60.9998 47.2806 61.1347C47.4165 61.4185 47.6562 61.6391 47.95 61.751C48.2439 61.8628 48.5695 61.8573 48.8594 61.7356C49.0244 61.6737 49.1748 61.5781 49.3008 61.4548C49.4268 61.3315 49.5257 61.1832 49.5912 61.0194C49.5979 60.9952 49.6093 60.9725 49.6249 60.9527C49.6404 60.9329 49.6597 60.9164 49.6817 60.9042C49.6999 60.8965 49.7195 60.8925 49.7392 60.8925C49.759 60.8925 49.7786 60.8965 49.7968 60.9042L50.2984 61.1018C50.3396 61.1127 50.375 61.1393 50.397 61.1758C50.4094 61.2189 50.4094 61.2645 50.397 61.3075C50.3138 61.5981 50.1643 61.8654 49.9602 62.0883C49.7562 62.3111 49.5032 62.4834 49.2212 62.5916C48.9658 62.7207 48.6872 62.7975 48.4018 62.8176C48.1164 62.8378 47.8298 62.8008 47.5589 62.7088C47.2879 62.6169 47.0379 62.4718 46.8236 62.2821C46.6092 62.0924 46.4347 61.8618 46.3104 61.6039C46.1802 61.3467 46.102 61.0664 46.0803 60.7789C46.0587 60.4914 46.0939 60.2025 46.1841 59.9287C46.2742 59.6549 46.4175 59.4016 46.6057 59.1834C46.7939 58.9652 47.0232 58.7863 47.2806 58.657M52.8145 54.887C52.8109 54.8793 52.809 54.8709 52.809 54.8623C52.809 54.8538 52.8109 54.8454 52.8145 54.8376C52.8145 54.8376 52.8145 54.8376 52.8639 54.8376L57.2137 56.6074C57.2209 56.6143 57.2266 56.6226 57.2306 56.6318C57.2345 56.641 57.2365 56.6509 57.2365 56.6609C57.2365 56.6709 57.2345 56.6808 57.2306 56.69C57.2266 56.6992 57.2209 56.7075 57.2137 56.7144L56.7368 57.1342C56.7368 57.1342 56.6792 57.1342 56.6216 57.1342L55.7418 56.7226L54.4344 57.9327C54.5331 58.229 54.6153 58.5582 54.714 58.871C54.714 58.9287 54.714 58.9534 54.714 58.9863L54.2288 59.4225C54.2219 59.4298 54.2136 59.4355 54.2044 59.4394C54.1953 59.4434 54.1854 59.4454 54.1754 59.4454C54.1654 59.4454 54.1555 59.4434 54.1463 59.4394C54.1371 59.4355 54.1288 59.4298 54.1219 59.4225L52.8145 54.887ZM58.5704 55.1669L55.1909 52.6481C55.1849 52.6397 55.1816 52.6296 55.1816 52.6193C55.1816 52.6089 55.1849 52.5989 55.1909 52.5905C55.1909 52.5905 55.1909 52.5905 55.2402 52.5905L57.9948 52.2859C58.0442 52.2859 58.0606 52.2859 58.0771 52.2859C58.0935 52.2859 58.0771 52.2859 58.0771 52.2036L57.559 49.4378C57.559 49.4378 57.559 49.3967 57.559 49.372C57.559 49.3473 57.559 49.372 57.6166 49.372L60.9879 51.899C60.9949 51.9052 61.0005 51.9128 61.0044 51.9213C61.0082 51.9298 61.0102 51.9391 61.0102 51.9484C61.0102 51.9578 61.0082 51.967 61.0044 51.9755C61.0005 51.984 60.9949 51.9916 60.9879 51.9978L60.6426 52.4588C60.6365 52.4673 60.6284 52.4742 60.6191 52.479C60.6099 52.4837 60.5996 52.4862 60.5891 52.4862C60.5787 52.4862 60.5684 52.4837 60.5591 52.479C60.5498 52.4742 60.5417 52.4673 60.5357 52.4588L58.6609 51.043L58.9076 52.7963C58.9142 52.8104 58.9176 52.8259 58.9176 52.8415C58.9176 52.8572 58.9142 52.8726 58.9076 52.8868C58.8933 52.8929 58.8779 52.8961 58.8623 52.8961C58.8468 52.8961 58.8314 52.8929 58.8171 52.8868L57.0657 53.1502L58.9651 54.566C58.9723 54.5729 58.9781 54.5812 58.982 54.5904C58.9859 54.5996 58.9879 54.6095 58.9879 54.6195C58.9879 54.6295 58.9859 54.6394 58.982 54.6486C58.9781 54.6578 58.9723 54.6661 58.9651 54.673L58.6198 55.134C58.6146 55.1425 58.6074 55.1496 58.5988 55.1544C58.5901 55.1593 58.5804 55.1619 58.5704 55.1619C58.5605 55.1619 58.5507 55.1593 58.5421 55.1544C58.5334 55.1496 58.5262 55.1425 58.5211 55.134M61.5059 49.372C61.8221 49.121 62.0754 48.7997 62.246 48.4336C62.4187 48.0797 62.3775 47.6105 62.1062 47.5035C61.3662 47.133 60.6426 49.3638 59.2694 48.6806C58.6033 48.3513 58.4471 47.6845 58.8582 46.812C59.0718 46.439 59.3503 46.1073 59.6805 45.8325C59.6927 45.8243 59.707 45.82 59.7216 45.82C59.7362 45.82 59.7506 45.8243 59.7627 45.8325L60.0587 46.2029C60.0645 46.2129 60.0676 46.2243 60.0676 46.2358C60.0676 46.2474 60.0645 46.2587 60.0587 46.2687C59.8249 46.4986 59.6231 46.7588 59.4585 47.0425C59.1131 47.7422 59.5325 47.9644 59.6312 48.0138C60.4534 48.4007 61.177 46.1947 62.4844 46.8367C63.0929 47.1413 63.1094 48.0632 62.838 48.6065C62.6401 49.0941 62.3025 49.5123 61.8677 49.8083C61.8548 49.8142 61.8408 49.8172 61.8266 49.8172C61.8124 49.8172 61.7984 49.8142 61.7855 49.8083L61.5224 49.4625C61.5142 49.4385 61.5142 49.4125 61.5224 49.3884M64.3921 44.5813L60.9879 43.5524L60.6672 44.5978C60.6645 44.6078 60.6597 44.6172 60.6531 44.6252C60.6465 44.6333 60.6382 44.6399 60.6289 44.6445C60.6196 44.6492 60.6094 44.6518 60.599 44.6523C60.5886 44.6527 60.5782 44.651 60.5686 44.6472L60.0916 44.499C60.0753 44.5077 60.0561 44.5096 60.0384 44.5042C60.0207 44.4988 60.0058 44.4866 59.9971 44.4702C59.9883 44.4538 59.9865 44.4346 59.9919 44.4169C59.9973 44.3991 60.0095 44.3842 60.0258 44.3755L60.8481 41.5851C60.8555 41.5661 60.8697 41.5505 60.888 41.5413C60.9062 41.5322 60.9272 41.5302 60.9468 41.5357L61.4237 41.6838C61.4427 41.6913 61.4583 41.7055 61.4674 41.7237C61.4765 41.742 61.4785 41.763 61.473 41.7826L61.1441 42.828L64.5566 43.8899C64.5749 43.8956 64.5904 43.9082 64.5996 43.9251C64.6088 43.942 64.611 43.9619 64.6059 43.9804L64.4332 44.5319C64.4305 44.542 64.4257 44.5513 64.4191 44.5594C64.4125 44.5675 64.4042 44.574 64.3949 44.5787C64.3856 44.5834 64.3754 44.586 64.365 44.5864C64.3546 44.5869 64.3442 44.5851 64.3346 44.5813M65.3131 40.9019L61.2017 40.2927C61.192 40.2917 61.1825 40.2888 61.1739 40.2841C61.1653 40.2794 61.1577 40.273 61.1516 40.2653C61.1455 40.2577 61.141 40.2489 61.1383 40.2395C61.1356 40.23 61.1348 40.2202 61.1359 40.2104L61.5471 37.4447C61.5509 37.4258 61.5612 37.4089 61.5763 37.3968C61.5913 37.3848 61.61 37.3784 61.6293 37.3788L62.1226 37.4529C62.1332 37.4538 62.1435 37.457 62.1527 37.4622C62.1619 37.4674 62.1699 37.4745 62.1762 37.4831C62.1824 37.4917 62.1867 37.5015 62.1889 37.512C62.191 37.5224 62.1908 37.5331 62.1884 37.5434L61.876 39.6589L63.1094 39.84L63.3561 38.1937C63.3561 38.1443 63.3561 38.1196 63.4383 38.1279L63.9152 38.1937C63.9355 38.1977 63.9536 38.2093 63.9658 38.2261C63.978 38.2429 63.9834 38.2636 63.981 38.2843L63.7343 39.9305L64.8361 40.0952L65.1486 37.9797C65.1526 37.9593 65.1641 37.9412 65.1809 37.929C65.1977 37.9168 65.2185 37.9114 65.239 37.9139L65.7324 37.9879C65.7423 37.9899 65.7516 37.9938 65.7599 37.9994C65.7682 38.0051 65.7752 38.0124 65.7806 38.0209C65.786 38.0293 65.7896 38.0388 65.7912 38.0487C65.7928 38.0586 65.7924 38.0687 65.79 38.0785L65.3871 40.836C65.3862 40.8466 65.383 40.8568 65.3778 40.8661C65.3726 40.8753 65.3654 40.8834 65.3569 40.8896C65.3483 40.8958 65.3385 40.9002 65.3281 40.9023C65.3177 40.9044 65.3069 40.9043 65.2966 40.9019M69.926 34.9999C69.926 28.0744 67.8736 21.3046 64.0285 15.5473C60.1834 9.78998 54.7186 5.304 48.3256 2.65713C41.9326 0.0102503 34.899 -0.678527 28.1148 0.677971C21.3306 2.03447 15.101 5.37526 10.2143 10.2775C5.32756 15.1798 2.00351 21.4231 0.662821 28.2173C-0.677865 35.0115 0.0250863 42.0512 2.6827 48.4453C5.34032 54.8394 9.83313 60.3005 15.5925 64.1374C21.3519 67.9743 28.1189 70.0146 35.037 69.9999C44.3098 69.9999 53.2027 66.3124 59.7596 59.7487C66.3164 53.1849 70 44.2825 70 34.9999" fill="#2F2614"/>
<path d="M93.9089 35.1172H99.4169L96.5949 25.9032L96.3229 27.2632L93.9089 35.1172ZM98.9069 44.3992C98.9069 43.8325 98.9522 43.3112 99.0429 42.8352C100.176 42.5632 101.015 42.2912 101.559 42.0192L100.029 37.0212H93.3309L91.6989 42.3592C92.2882 42.6765 93.1722 42.8352 94.3509 42.8352C94.3509 43.4245 94.3056 43.9458 94.2149 44.3992H87.1089C87.1089 43.8098 87.1542 43.2885 87.2449 42.8352C88.5142 42.5405 89.3302 41.8378 89.6929 40.7272L95.6089 22.7752C96.6289 22.5485 98.0342 22.4125 99.8249 22.3672L105.707 40.7952C105.956 41.5432 106.262 42.0645 106.625 42.3592C107.01 42.6538 107.588 42.8125 108.359 42.8352C108.314 43.5152 108.257 44.0365 108.189 44.3992H98.9069ZM116.249 32.7372H118.493C119.785 32.7372 120.771 32.3972 121.451 31.7172C122.154 31.0145 122.505 30.0058 122.505 28.6912C122.505 27.3538 122.154 26.3338 121.451 25.6312C120.771 24.9285 119.785 24.5772 118.493 24.5772H116.249V32.7372ZM129.645 42.6992C129.645 43.3792 129.589 43.9458 129.475 44.3992H123.865L119.717 35.8312C119.491 35.3552 119.241 35.0152 118.969 34.8112C118.697 34.6072 118.301 34.5052 117.779 34.5052H116.249V42.1892C117.133 42.5518 118.085 42.7672 119.105 42.8352C119.128 42.9938 119.139 43.1978 119.139 43.4472C119.139 43.6965 119.094 44.0138 119.003 44.3992H109.653C109.653 44.2632 109.653 44.0592 109.653 43.7872C109.653 43.4925 109.71 43.1752 109.823 42.8352C110.571 42.7218 111.115 42.5405 111.455 42.2912C111.795 42.0418 111.965 41.5998 111.965 40.9652V24.8152C111.24 24.5205 110.435 24.3732 109.551 24.3732C109.551 23.6932 109.608 23.1718 109.721 22.8092H119.309C121.757 22.8092 123.661 23.3305 125.021 24.3732C126.404 25.4158 127.095 26.8438 127.095 28.6572C127.095 29.9718 126.721 31.0938 125.973 32.0232C125.225 32.9525 124.149 33.6325 122.743 34.0632C123.378 34.4485 123.979 35.1625 124.545 36.2052L126.823 40.6592C127.231 41.4525 127.628 41.9965 128.013 42.2912C128.421 42.5632 128.965 42.6992 129.645 42.6992ZM147.101 34.0292C147.101 27.4785 145.378 24.2032 141.933 24.2032C138.827 24.2032 137.275 27.2292 137.275 33.2812C137.275 36.7492 137.717 39.2425 138.601 40.7612C139.485 42.2572 140.731 43.0052 142.341 43.0052C145.514 43.0052 147.101 40.0132 147.101 34.0292ZM149.379 41.7812C147.52 43.8438 145.106 44.8752 142.137 44.8752C139.167 44.8752 136.765 43.8438 134.929 41.7812C133.093 39.7185 132.175 37.0212 132.175 33.6892C132.175 30.3345 133.093 27.6032 134.929 25.4952C136.765 23.3872 139.167 22.3332 142.137 22.3332C145.106 22.3332 147.52 23.3872 149.379 25.4952C151.26 27.6032 152.201 30.3345 152.201 33.6892C152.201 37.0212 151.26 39.7185 149.379 41.7812ZM182.95 42.8352C182.995 43.1072 183.018 43.3792 183.018 43.6512C183.018 43.9232 183.006 44.1725 182.984 44.3992H173.43C173.407 44.1272 173.396 43.8665 173.396 43.6172C173.396 43.3452 173.407 43.0845 173.43 42.8352C173.996 42.7445 174.427 42.6652 174.722 42.5972C175.016 42.5065 175.311 42.3252 175.606 42.0532C175.9 41.7812 176.048 41.4185 176.048 40.9652L175.64 26.2432L174.552 29.0992L168.5 44.3992H167.31L160.782 26.1412L159.762 42.5292C160.464 42.7332 161.303 42.8352 162.278 42.8352C162.232 43.3792 162.164 43.9005 162.074 44.3992H154.764C154.809 43.6965 154.877 43.1752 154.968 42.8352C155.693 42.7218 156.26 42.5292 156.668 42.2572C157.076 41.9852 157.291 41.5318 157.314 40.8972L158.198 24.7472C157.586 24.4978 156.951 24.3732 156.294 24.3732C156.294 24.3052 156.294 24.1352 156.294 23.8632C156.294 23.5912 156.35 23.2398 156.464 22.8092H163.74L168.67 37.0212L174.246 22.8092H181.318C181.386 23.0812 181.42 23.3532 181.42 23.6252C181.42 23.8972 181.408 24.1352 181.386 24.3392C180.706 24.4525 180.207 24.6452 179.89 24.9172C179.595 25.1665 179.459 25.6085 179.482 26.2432L180.4 42.4952C181.125 42.7218 181.975 42.8352 182.95 42.8352ZM190.663 35.1172H196.171L193.349 25.9032L193.077 27.2632L190.663 35.1172ZM195.661 44.3992C195.661 43.8325 195.706 43.3112 195.797 42.8352C196.93 42.5632 197.769 42.2912 198.313 42.0192L196.783 37.0212H190.085L188.453 42.3592C189.042 42.6765 189.926 42.8352 191.105 42.8352C191.105 43.4245 191.059 43.9458 190.969 44.3992H183.863C183.863 43.8098 183.908 43.2885 183.999 42.8352C185.268 42.5405 186.084 41.8378 186.447 40.7272L192.363 22.7752C193.383 22.5485 194.788 22.4125 196.579 22.3672L202.461 40.7952C202.71 41.5432 203.016 42.0645 203.379 42.3592C203.764 42.6538 204.342 42.8125 205.113 42.8352C205.067 43.5152 205.011 44.0365 204.943 44.3992H195.661ZM212.969 42.6652H218.341C219.18 42.6652 219.826 42.4385 220.279 41.9852C220.574 41.6905 220.767 41.2258 220.857 40.5912C220.971 39.9338 221.05 39.3105 221.095 38.7212C221.707 38.7212 222.217 38.7438 222.625 38.7892C222.784 40.3985 222.863 41.6452 222.863 42.5292C222.863 43.3905 222.852 44.0138 222.829 44.3992H206.373C206.373 44.2405 206.373 44.0252 206.373 43.7532C206.373 43.4812 206.419 43.1752 206.509 42.8352C207.257 42.7218 207.801 42.5405 208.141 42.2912C208.481 42.0418 208.651 41.5998 208.651 40.9652V24.7812C208.017 24.5092 207.235 24.3732 206.305 24.3732C206.305 24.2825 206.305 24.1238 206.305 23.8972C206.305 23.6705 206.339 23.3078 206.407 22.8092H215.213C215.236 22.9678 215.247 23.1832 215.247 23.4552C215.247 23.7045 215.191 24.0105 215.077 24.3732C214.352 24.4638 213.819 24.6452 213.479 24.9172C213.139 25.1665 212.969 25.6085 212.969 26.2432V42.6652ZM240.567 34.0292C240.567 27.4785 238.845 24.2032 235.399 24.2032C232.294 24.2032 230.741 27.2292 230.741 33.2812C230.741 36.7492 231.183 39.2425 232.067 40.7612C232.951 42.2572 234.198 43.0052 235.807 43.0052C238.981 43.0052 240.567 40.0132 240.567 34.0292ZM242.845 41.7812C240.987 43.8438 238.573 44.8752 235.603 44.8752C232.634 44.8752 230.231 43.8438 228.395 41.7812C226.559 39.7185 225.641 37.0212 225.641 33.6892C225.641 30.3345 226.559 27.6032 228.395 25.4952C230.231 23.3872 232.634 22.3332 235.603 22.3332C238.573 22.3332 240.987 23.3872 242.845 25.4952C244.727 27.6032 245.667 30.3345 245.667 33.6892C245.667 37.0212 244.727 39.7185 242.845 41.7812ZM269.956 33.5872C269.979 33.7232 269.99 33.9385 269.99 34.2332C269.99 34.5052 269.934 34.8565 269.82 35.2872C269.095 35.4685 268.585 35.6385 268.29 35.7972C267.814 36.0692 267.576 36.5338 267.576 37.1912V44.3992H265.298L264.584 43.3792C262.975 44.3538 261.241 44.8412 259.382 44.8412C256.549 44.8412 254.135 43.8552 252.14 41.8832C250.168 39.8885 249.182 37.1912 249.182 33.7912C249.182 30.3912 250.316 27.6372 252.582 25.5292C254.872 23.3985 257.603 22.3332 260.776 22.3332C263.202 22.3332 265.536 22.7185 267.78 23.4892C267.712 25.3252 267.474 27.1498 267.066 28.9632C266.976 28.9632 266.828 28.9632 266.624 28.9632C266.443 28.9632 266.148 28.9518 265.74 28.9292C265.514 27.6145 264.958 26.5945 264.074 25.8692C263.19 25.1212 262.08 24.7472 260.742 24.7472C258.634 24.7472 256.957 25.5292 255.71 27.0932C254.464 28.6345 253.84 30.8332 253.84 33.6892C253.84 36.5452 254.418 38.7212 255.574 40.2172C256.73 41.6905 258.294 42.4272 260.266 42.4272C261.49 42.4272 262.669 42.1438 263.802 41.5772V35.7292C263.032 35.4798 262.102 35.3325 261.014 35.2872C261.014 34.6072 261.06 34.0405 261.15 33.5872H269.956ZM278.48 26.2432V42.4272C279.137 42.6992 279.919 42.8352 280.826 42.8352C280.826 42.9258 280.826 43.0845 280.826 43.3112C280.826 43.5378 280.792 43.9005 280.724 44.3992H271.884C271.884 44.2632 271.884 44.0592 271.884 43.7872C271.884 43.4925 271.94 43.1752 272.054 42.8352C272.802 42.7218 273.346 42.5405 273.686 42.2912C274.026 42.0418 274.196 41.5998 274.196 40.9652V24.8152C273.538 24.5205 272.734 24.3732 271.782 24.3732C271.782 23.6932 271.838 23.1718 271.952 22.8092H280.758C280.78 22.9678 280.792 23.1945 280.792 23.4892C280.792 23.7612 280.735 24.0558 280.622 24.3732C279.896 24.4638 279.352 24.6452 278.99 24.9172C278.65 25.1665 278.48 25.6085 278.48 26.2432ZM294.181 44.8412C291.348 44.8412 288.922 43.8665 286.905 41.9172C284.91 39.9452 283.913 37.2478 283.913 33.8252C283.913 30.3798 285.001 27.6032 287.177 25.4952C289.376 23.3872 292.096 22.3332 295.337 22.3332C297.898 22.3332 299.927 22.7185 301.423 23.4892C301.31 25.4612 301.072 27.3425 300.709 29.1332C299.87 29.1332 299.417 29.1218 299.349 29.0992C299.304 27.7845 298.918 26.7305 298.193 25.9372C297.468 25.1212 296.459 24.7132 295.167 24.7132C293.24 24.7132 291.654 25.4838 290.407 27.0252C289.183 28.5438 288.571 30.6972 288.571 33.4852C288.571 36.2505 289.217 38.3585 290.509 39.8092C291.824 41.2598 293.501 41.9852 295.541 41.9852C297.581 41.9852 299.372 41.4752 300.913 40.4552L301.865 41.5092C300.958 42.5292 299.825 43.3452 298.465 43.9572C297.128 44.5465 295.7 44.8412 294.181 44.8412Z" fill="#9B8753"/>
</svg>
