<svg width="23" height="21" viewBox="0 0 23 21" fill="none" xmlns="http://www.w3.org/2000/svg">
<path d="M6.92969 8H16.0312L12.8281 1.90625C12.5938 1.4375 12.7891 0.851562 13.2188 0.617188C13.6875 0.382812 14.2734 0.578125 14.5078 1.00781L18.1406 8H21.5C22.1641 8 22.75 8.58594 22.75 9.25C22.75 9.95312 22.1641 10.5 21.5 10.5L19.4688 18.625C19.1562 19.7188 18.1797 20.5 17.0469 20.5H5.91406C4.78125 20.5 3.80469 19.7188 3.49219 18.625L1.5 10.5C0.796875 10.5 0.25 9.95312 0.25 9.25C0.25 8.58594 0.796875 8 1.5 8H4.82031L8.45312 1.00781C8.6875 0.578125 9.27344 0.382812 9.74219 0.617188C10.1719 0.851562 10.3672 1.4375 10.1328 1.90625L6.92969 8ZM7.71094 12.375C7.71094 12.0625 7.4375 11.75 7.08594 11.75C6.77344 11.75 6.46094 12.0625 6.46094 12.375V16.125C6.46094 16.4766 6.77344 16.75 7.08594 16.75C7.4375 16.75 7.71094 16.4766 7.71094 16.125V12.375ZM10.8359 12.375V16.125C10.8359 16.4766 11.1484 16.75 11.4609 16.75C11.8125 16.75 12.125 16.4766 12.125 16.125V12.375C12.125 12.0625 11.8125 11.75 11.4609 11.75C11.1484 11.75 10.8359 12.0625 10.8359 12.375ZM16.5 12.375C16.5 12.0625 16.1875 11.75 15.875 11.75C15.5234 11.75 15.25 12.0625 15.25 12.375V16.125C15.25 16.4766 15.5234 16.75 15.875 16.75C16.1875 16.75 16.5 16.4766 16.5 16.125V12.375Z" fill="#465F29"/>
</svg>
