<svg width="32" height="32" viewBox="0 0 32 32" fill="none" xmlns="http://www.w3.org/2000/svg">
<circle cx="16" cy="16" r="16" fill="white"/>
<path d="M24.125 8.35645C25.1406 8.35645 26 9.21582 26 10.2314C26 10.8564 25.6875 11.4033 25.2188 11.7549L16.7422 18.1221C16.2734 18.4736 15.6875 18.4736 15.2188 18.1221L6.74219 11.7549C6.27344 11.4033 6 10.8564 6 10.2314C6 9.21582 6.82031 8.35645 7.875 8.35645H24.125ZM14.4766 19.1377C15.375 19.8018 16.5859 19.8018 17.4844 19.1377L26 12.7314V20.8564C26 22.2627 24.8672 23.3564 23.5 23.3564H8.5C7.09375 23.3564 6 22.2627 6 20.8564V12.7314L14.4766 19.1377Z" fill="black"/>
</svg>
