<svg width="32" height="32" viewBox="0 0 32 32" fill="none" xmlns="http://www.w3.org/2000/svg">
<circle cx="16" cy="16" r="16" fill="white"/>
<path d="M25.6875 15.8564C25.6875 20.7002 22.1328 24.7236 17.4844 25.4268V18.6689H19.75L20.1797 15.8564H17.4844V14.0596C17.4844 13.2783 17.875 12.5361 19.0859 12.5361H20.2969V10.1533C20.2969 10.1533 19.2031 9.95801 18.1094 9.95801C15.9219 9.95801 14.4766 11.3252 14.4766 13.7471V15.8564H12.0156V18.6689H14.4766V25.4268C9.82812 24.7236 6.3125 20.7002 6.3125 15.8564C6.3125 10.5049 10.6484 6.16895 16 6.16895C21.3516 6.16895 25.6875 10.5049 25.6875 15.8564Z" fill="black"/>
</svg>
