<svg width="32" height="32" viewBox="0 0 32 32" fill="none" xmlns="http://www.w3.org/2000/svg">
<circle cx="16" cy="16" r="16" fill="white"/>
<path d="M16 13.7861C17.1328 13.7861 18.0703 14.7236 18.0703 15.8564C18.0703 16.2471 17.9531 16.5986 17.7969 16.9111C16.9766 18.3174 14.9844 18.3174 14.1641 16.9111C13.3828 15.5439 14.3594 13.7861 16 13.7861ZM20.8438 12.1846C21.1953 13.0049 21.1172 14.958 21.1172 15.8564C21.1172 16.7939 21.1953 18.7471 20.8438 19.5674C20.6484 20.1143 20.2188 20.5439 19.6719 20.7393C18.8516 21.0908 16.8984 21.0127 16 21.0127C15.0625 21.0127 13.1094 21.0908 12.2891 20.7393C11.7422 20.5439 11.3125 20.1143 11.1172 19.5674C10.8047 18.7471 10.8438 16.7939 10.8438 15.8564C10.8438 14.958 10.8047 13.0049 11.1172 12.1846C11.3125 11.6377 11.7422 11.208 12.2891 11.0127C13.1094 10.6611 15.0625 10.7393 16 10.7393C16.8984 10.7393 18.8516 10.6611 19.6719 11.0127C20.2188 11.208 20.6484 11.6377 20.8438 12.1846ZM16 19.0596C17.7578 19.0986 19.2031 17.6533 19.2031 15.8564C19.2031 15.3096 19.0469 14.7627 18.7734 14.2549C17.5234 12.1455 14.4375 12.1455 13.1875 14.2549C11.9766 16.4033 13.5 19.0596 16 19.0596ZM19.3203 13.2783C19.7109 13.2783 20.0625 12.9658 20.0625 12.5361C20.0625 12.4189 20.0234 12.2627 19.9453 12.1455C19.6719 11.6768 18.9688 11.6768 18.6562 12.1455C18.3828 12.6533 18.7344 13.2783 19.3203 13.2783ZM22.875 7.10645C23.8906 7.10645 24.75 7.96582 24.75 8.98145V22.7314C24.75 23.7861 23.8906 24.6064 22.875 24.6064H9.125C8.07031 24.6064 7.25 23.7861 7.25 22.7314V8.98145C7.25 7.96582 8.07031 7.10645 9.125 7.10645H22.875ZM22.1719 18.4346C22.25 17.4189 22.25 14.333 22.1719 13.3174C22.1328 12.3018 21.8984 11.4033 21.1953 10.7002C20.4531 9.95801 19.5547 9.72363 18.5781 9.68457C17.5234 9.60645 14.4375 9.60645 13.4219 9.68457C12.4062 9.72363 11.5078 9.95801 10.8047 10.6611C10.0625 11.4033 9.82812 12.3018 9.78906 13.2783C9.71094 14.333 9.71094 17.4189 9.78906 18.4346C9.82812 19.4502 10.0625 20.3486 10.8047 21.0518C11.5078 21.7939 12.4062 22.0283 13.4219 22.0674C14.4375 22.1455 17.5234 22.1455 18.5781 22.0674C19.5547 22.0283 20.4531 21.7939 21.1953 21.0518C21.8984 20.3486 22.1328 19.4502 22.1719 18.4346Z" fill="black"/>
</svg>
