<svg width="44" height="21" viewBox="0 0 44 21" fill="none" xmlns="http://www.w3.org/2000/svg">
<path d="M13.75 10.5C13.75 11.3984 13.6719 12.2188 13.5938 13H6.36719C6.28906 12.2188 6.21094 11.3984 6.21094 10.5C6.21094 9.64062 6.28906 8.82031 6.36719 8H13.5938C13.6719 8.82031 13.75 9.64062 13.75 10.5ZM19.6484 8C19.8828 8.82031 20 9.64062 20 10.5C20 11.3984 19.8828 12.2188 19.6484 13H14.8438C14.9219 12.2188 15 11.3594 15 10.5C15 9.64062 14.9219 8.82031 14.8438 8H19.6484ZM19.2578 6.75H14.6875C14.2969 4.28906 13.5156 2.17969 12.5391 0.851562C15.5859 1.67188 18.0859 3.85938 19.2578 6.75ZM13.4375 6.75H6.52344C6.75781 5.34375 7.14844 4.09375 7.57812 3.07812C8.00781 2.14062 8.4375 1.47656 8.90625 1.04688C9.33594 0.65625 9.6875 0.5 10 0.5C10.2734 0.5 10.625 0.65625 11.0547 1.04688C11.5234 1.47656 11.9531 2.14062 12.3828 3.07812C12.8125 4.09375 13.2031 5.34375 13.4375 6.75ZM0.703125 6.75C1.875 3.85938 4.375 1.67188 7.42188 0.851562C6.44531 2.17969 5.66406 4.28906 5.27344 6.75H0.703125ZM5.11719 8C5.03906 8.82031 4.96094 9.64062 4.96094 10.5C4.96094 11.3594 5.03906 12.2188 5.11719 13H0.3125C0.078125 12.2188 0 11.3984 0 10.5C0 9.64062 0.078125 8.82031 0.3125 8H5.11719ZM7.57812 17.9609C7.14844 16.9453 6.75781 15.6953 6.52344 14.25H13.4375C13.2031 15.6953 12.8125 16.9453 12.3828 17.9609C11.9531 18.8984 11.5234 19.5625 11.0547 19.9922C10.625 20.3828 10.2734 20.5 9.96094 20.5C9.6875 20.5 9.33594 20.3828 8.90625 19.9922C8.4375 19.5625 8.00781 18.8984 7.57812 17.9609ZM7.42188 20.1875C4.375 19.3672 1.875 17.1797 0.703125 14.25H5.27344C5.66406 16.75 6.44531 18.8594 7.42188 20.1875ZM12.5391 20.1875C13.5156 18.8594 14.2969 16.75 14.6875 14.25H19.2578C18.0859 17.1797 15.5859 19.3672 12.5391 20.1875Z" fill="#465F29"/>
<path d="M26.751 15V6.6H28.035L33.303 13.068H32.667V6.6H34.215V15H32.931L27.663 8.532H28.299V15H26.751ZM37.9059 10.092H42.0819V11.376H37.9059V10.092ZM38.0259 13.692H42.7659V15H36.4659V6.6H42.5979V7.908H38.0259V13.692Z" fill="#465F29"/>
</svg>
