<svg width="32" height="32" viewBox="0 0 32 32" fill="none" xmlns="http://www.w3.org/2000/svg">
<circle cx="16" cy="16" r="16" fill="white"/>
<path d="M6.70312 19.6064L10.9609 17.7705C11.4688 17.5752 12.0547 17.6924 12.3672 18.1221L14.0859 20.2314C16.8203 18.9033 19.0078 16.7158 20.3359 13.9814L18.2266 12.2627C17.7969 11.9502 17.6797 11.3643 17.875 10.8564L19.7109 6.59863C19.9453 6.09082 20.5312 5.77832 21.0781 5.89551L25.0234 6.83301C25.6094 6.9502 25.9609 7.41895 25.9609 8.00488C25.9609 17.8486 17.9531 25.8955 8.10938 25.8955C7.52344 25.8955 7.05469 25.5049 6.9375 24.9189L6 21.0127C5.88281 20.4268 6.19531 19.8408 6.70312 19.6064Z" fill="black"/>
</svg>
