<svg width="32" height="32" viewBox="0 0 32 32" fill="none" xmlns="http://www.w3.org/2000/svg">
<circle cx="16" cy="16" r="16" fill="white"/>
<path d="M16 10.6611C17.3672 10.6611 18.6562 11.208 19.6328 12.1846C20.6094 13.1611 21.1953 14.4502 21.1953 15.8174C21.1953 18.6689 18.8125 20.9736 16 20.9736H15.9609C15.0625 20.9736 14.1641 20.7393 13.3438 20.2705L13.1875 20.1533L11.2344 20.6611L11.7422 18.7471L11.625 18.5518C11.1172 17.7314 10.8438 16.7939 10.8438 15.8174C10.8438 12.9658 13.1484 10.6611 16 10.6611ZM19.0078 18.0439C19.125 17.6533 19.125 17.3408 19.0859 17.3018C19.0469 17.2236 18.9688 17.1846 18.8125 17.1064C18.6562 17.0283 17.875 16.6377 17.7578 16.5986C17.6016 16.5596 17.4844 16.5205 17.4062 16.6768C17.2891 16.833 17.0156 17.1846 16.8984 17.3018C16.8203 17.3799 16.7422 17.4189 16.5859 17.3408C15.6484 16.8721 15.0625 16.5205 14.4766 15.4658C14.3203 15.1924 14.6328 15.2314 14.9062 14.6455C14.9844 14.5283 14.9453 14.4502 14.9062 14.3721C14.8672 14.2939 14.5547 13.5127 14.4375 13.2393C14.3203 12.9268 14.1641 12.9658 14.0859 12.9658C14.0078 12.9658 13.8906 12.9658 13.7734 12.9658C13.6953 12.9658 13.5 13.0049 13.3828 13.1611C13.2266 13.3174 12.8359 13.6689 12.8359 14.4502C12.8359 15.1924 13.3828 15.9346 13.4609 16.0518C13.5391 16.1299 14.5547 17.6924 16.1172 18.3955C17.0938 18.7861 17.4844 18.8252 17.9531 18.7471C18.2656 18.708 18.8906 18.3955 19.0078 18.0439ZM22.875 7.10645C23.8906 7.10645 24.75 7.96582 24.75 8.98145V22.7314C24.75 23.7861 23.8906 24.6064 22.875 24.6064H9.125C8.07031 24.6064 7.25 23.7861 7.25 22.7314V8.98145C7.25 7.96582 8.07031 7.10645 9.125 7.10645H22.875ZM15.9609 22.0283C19.3984 22.0283 22.25 19.2549 22.25 15.8174C22.25 14.1768 21.5469 12.6143 20.375 11.4424C19.2031 10.2705 17.6406 9.60645 15.9609 9.60645C12.5625 9.60645 9.78906 12.4189 9.78906 15.8174C9.78906 16.9111 10.0625 17.9658 10.6094 18.9033L9.75 22.1064L13.0312 21.2471C13.9297 21.7549 14.9453 22.0283 15.9609 22.0283Z" fill="black"/>
</svg>
